<?xml version="1.0" encoding="UTF-8" standalone="no"?>
<!DOCTYPE svg PUBLIC "-//W3C//DTD SVG 1.1//EN" "http://www.w3.org/Graphics/SVG/1.1/DTD/svg11.dtd">
<svg version="1.1" xmlns="http://www.w3.org/2000/svg" xmlns:xlink="http://www.w3.org/1999/xlink" preserveAspectRatio="xMidYMid meet" viewBox="0 0 636 636" width="636" height="636">
<defs>
<path d="M347.89 582.63L341.36 607.62L331 620.38L305.11 620.38L294.53 607.62L288 582.63L301.62 563.61L317.94 559.54L334.27 563.61L347.89 582.63ZM293.06 583.98L298.47 604.76L307.02 614.95L329.2 614.95L337.65 604.76L343.05 583.98L332.02 568.64L318.06 565.11L304.1 568.64L293.06 583.98Z" id="i1FJjoVwED">
</path>
<path d="M583.76 0.01L583.84 0.02L583.92 0.03L584 0.05L584.08 0.07L584.16 0.09L584.23 0.12L584.31 0.15L584.38 0.18L584.45 0.22L584.52 0.26L584.59 0.3L584.66 0.35L584.73 0.4L584.79 0.45L584.86 0.51L584.92 0.56L584.98 0.63L585.04 0.69L585.1 0.76L585.15 0.83L585.2 0.91L585.25 0.99L585.3 1.07L585.35 1.16L585.39 1.24L585.44 1.33L585.48 1.43L585.51 1.53L585.55 1.63L635.31 130.51L635.33 130.57L635.36 130.64L635.38 130.7L635.4 130.76L635.42 130.83L635.43 130.89L635.45 130.96L635.46 131.03L635.47 131.1L635.48 131.16L635.49 131.23L635.5 131.3L635.5 131.37L635.5 131.44L635.51 131.51L635.51 131.58L635.51 131.66L635.5 131.73L635.5 131.8L635.49 131.87L635.49 131.94L635.48 132.01L635.47 132.08L635.46 132.15L635.44 132.22L635.43 132.29L635.41 132.37L635.4 132.44L635.38 132.5L635.36 132.57L635.34 132.64L635.31 132.71L635.29 132.78L635.26 132.84L635.24 132.91L635.21 132.98L635.18 133.04L635.15 133.1L635.12 133.17L635.09 133.23L591.63 210.78L558.19 306.66L558.18 306.7L558.16 306.74L558.14 306.78L558.12 306.82L558.11 306.86L558.09 306.89L558.07 306.93L558.06 306.97L558.04 307L558.02 307.04L558 307.08L557.99 307.11L557.97 307.14L557.95 307.18L557.93 307.21L557.91 307.24L557.9 307.28L557.88 307.31L557.86 307.34L557.84 307.37L557.82 307.4L557.8 307.43L557.78 307.46L557.76 307.49L557.74 307.52L557.72 307.55L557.7 307.57L557.68 307.6L557.66 307.63L557.64 307.65L557.62 307.68L557.59 307.7L557.57 307.73L557.55 307.75L557.53 307.77L557.5 307.79L557.48 307.82L557.45 307.84L557.43 307.86L557.4 307.88L485.58 366.14L497.62 370.49L497.7 370.52L497.77 370.56L497.85 370.59L497.92 370.63L497.99 370.67L498.06 370.72L498.12 370.76L498.19 370.81L498.25 370.86L498.31 370.92L498.37 370.97L498.43 371.03L498.49 371.09L498.54 371.15L498.6 371.21L498.65 371.28L498.7 371.35L498.75 371.41L498.79 371.49L498.83 371.56L498.87 371.63L498.91 371.71L498.95 371.79L498.99 371.87L499.02 371.95L499.05 372.03L499.08 372.12L499.1 372.2L499.12 372.29L499.14 372.38L499.16 372.47L499.18 372.56L499.19 372.66L499.2 372.75L499.21 372.85L499.21 372.94L499.21 373.04L499.21 373.14L499.21 373.24L499.2 373.34L499.19 373.43L499.18 373.52L499.16 373.61L499.15 373.7L499.13 373.79L499.1 373.88L499.08 373.97L499.05 374.05L499.02 374.14L498.99 374.22L498.96 374.3L498.92 374.38L498.89 374.46L498.85 374.54L498.81 374.62L498.76 374.69L498.72 374.76L498.67 374.83L498.62 374.9L498.57 374.97L498.51 375.04L498.46 375.1L498.4 375.16L498.34 375.22L498.28 375.27L498.22 375.33L498.15 375.38L498.09 375.43L498.02 375.48L497.95 375.52L497.88 375.56L497.81 375.6L497.73 375.63L497.66 375.66L497.58 375.69L497.5 375.72L497.42 375.74L497.34 375.76L497.26 375.77L497.17 375.79L468.69 380L468.64 380L468.59 380L468.56 380L468.54 380L468.51 380L468.49 379.99L468.46 379.99L468.44 379.99L468.41 379.99L468.39 379.99L468.36 379.99L468.34 379.99L468.31 379.99L468.28 379.99L468.26 379.99L468.23 379.98L468.21 379.98L468.18 379.98L468.16 379.98L468.13 379.97L468.11 379.97L468.08 379.97L468.06 379.96L468.03 379.96L468.01 379.95L467.98 379.95L467.96 379.94L467.93 379.94L467.9 379.93L467.88 379.93L467.85 379.92L467.83 379.91L467.8 379.9L467.78 379.9L467.75 379.89L467.73 379.88L467.7 379.87L467.68 379.86L463.74 378.23L394.61 415.17L391.23 422.78L398.66 414.49L398.69 414.46L398.72 414.43L398.74 414.4L398.77 414.37L398.8 414.35L398.83 414.32L398.86 414.29L398.89 414.26L398.92 414.24L398.95 414.21L398.99 414.19L399.02 414.17L399.05 414.14L399.09 414.12L399.12 414.1L399.16 414.08L399.19 414.06L399.23 414.04L399.26 414.02L399.3 414L399.33 413.98L399.37 413.97L399.41 413.95L399.44 413.93L399.48 413.92L399.52 413.91L399.55 413.89L399.59 413.88L399.63 413.87L399.66 413.86L399.7 413.85L399.73 413.84L399.77 413.84L399.81 413.83L399.84 413.83L399.88 413.82L399.91 413.82L399.95 413.81L399.98 413.81L400.02 413.81L419.38 411.91L453.38 387.47L453.41 387.45L453.45 387.43L453.48 387.41L453.51 387.39L453.55 387.37L453.58 387.35L453.62 387.34L453.65 387.32L453.68 387.3L453.72 387.29L453.75 387.27L453.79 387.26L453.82 387.24L453.86 387.23L453.89 387.22L453.93 387.2L453.96 387.19L454 387.18L454.03 387.17L454.07 387.16L454.1 387.15L454.14 387.14L454.18 387.13L454.21 387.12L454.25 387.12L454.29 387.11L454.33 387.1L454.36 387.09L454.4 387.09L454.44 387.08L454.48 387.08L454.52 387.07L454.56 387.07L454.6 387.07L454.64 387.06L454.68 387.06L454.72 387.06L454.76 387.06L454.8 387.06L454.84 387.06L464.3 388.55L464.36 388.56L464.42 388.58L464.47 388.59L464.53 388.6L464.59 388.62L464.65 388.64L464.7 388.66L464.76 388.68L464.81 388.7L464.87 388.73L464.92 388.75L464.97 388.78L465.02 388.81L465.08 388.84L465.13 388.87L465.18 388.9L465.23 388.94L465.27 388.97L465.32 389.01L465.37 389.04L465.41 389.08L465.46 389.12L465.5 389.16L465.55 389.21L465.59 389.25L465.63 389.3L465.67 389.34L465.71 389.39L465.75 389.44L465.79 389.49L465.82 389.54L465.86 389.59L465.89 389.64L465.93 389.7L465.96 389.75L465.99 389.81L466.02 389.87L466.05 389.93L466.07 389.99L466.1 390.05L466.13 390.11L466.15 390.17L466.17 390.23L466.19 390.29L466.21 390.36L466.22 390.42L466.24 390.48L466.25 390.55L466.26 390.61L466.27 390.68L466.28 390.74L466.29 390.81L466.29 390.87L466.3 390.94L466.3 391.01L466.3 391.07L466.3 391.14L466.3 391.2L466.3 391.27L466.3 391.34L466.29 391.4L466.29 391.47L466.28 391.53L466.27 391.6L466.26 391.67L466.25 391.73L466.24 391.8L466.23 391.86L466.21 391.93L466.2 391.99L466.18 392.06L466.16 392.12L466.14 392.19L466.12 392.25L466.1 392.32L466.08 392.38L466.06 392.44L466.04 392.5L466.01 392.57L465.99 392.63L442.57 436.09L438.18 444.51L437.84 444.91L411.95 475.74L411.92 475.77L411.9 475.8L411.87 475.83L411.85 475.86L411.82 475.88L411.8 475.91L411.77 475.93L411.75 475.96L411.72 475.98L411.7 476L411.67 476.02L411.65 476.04L411.62 476.06L411.59 476.08L411.57 476.1L411.54 476.12L411.52 476.14L411.49 476.15L411.47 476.17L411.44 476.18L411.42 476.2L411.39 476.21L411.37 476.23L411.34 476.24L411.32 476.25L411.29 476.27L411.27 476.28L411.24 476.29L411.21 476.3L411.19 476.32L411.16 476.33L411.14 476.34L411.11 476.35L411.09 476.36L411.06 476.37L411.04 476.38L411.01 476.39L410.99 476.4L410.94 476.42L386.06 483.89L380.43 492.31L380.43 512.28L380.43 512.31L380.43 512.34L380.42 512.37L380.42 512.4L380.42 512.43L380.42 512.46L380.42 512.49L380.41 512.52L380.41 512.55L380.41 512.58L380.4 512.61L380.4 512.64L380.39 512.67L380.39 512.7L380.38 512.73L380.38 512.76L380.37 512.8L380.37 512.83L380.36 512.86L380.36 512.89L380.35 512.92L380.34 512.95L380.34 512.98L380.33 513.01L380.32 513.04L380.31 513.07L380.31 513.1L380.3 513.13L380.29 513.16L380.28 513.19L380.28 513.22L380.27 513.25L380.26 513.28L380.25 513.31L380.24 513.35L380.23 513.38L380.22 513.44L380.2 513.5L376.82 521.92L375.25 535.91L372.77 581.27L372.77 581.3L372.77 581.33L372.77 581.36L372.77 581.39L372.77 581.43L372.76 581.46L372.76 581.49L372.76 581.53L372.75 581.56L372.75 581.59L372.75 581.63L372.74 581.66L372.74 581.7L372.73 581.73L372.72 581.77L372.72 581.8L372.71 581.84L372.7 581.88L372.69 581.91L372.69 581.95L372.68 581.98L372.67 582.02L372.66 582.05L372.65 582.09L372.64 582.12L372.63 582.16L372.62 582.2L372.61 582.23L372.59 582.26L372.58 582.3L372.57 582.33L372.55 582.37L372.54 582.4L372.53 582.43L372.51 582.47L372.5 582.5L372.48 582.53L372.47 582.56L372.45 582.6L372.43 582.63L363.99 598.11L355.55 617.12L355.52 617.18L355.49 617.24L355.47 617.3L355.44 617.35L355.41 617.41L355.38 617.46L355.35 617.51L355.32 617.56L355.28 617.61L355.25 617.66L355.22 617.7L355.18 617.75L355.15 617.79L355.11 617.83L355.07 617.87L355.03 617.91L354.99 617.95L354.95 617.99L354.91 618.02L354.87 618.06L354.83 618.09L354.78 618.12L354.74 618.15L354.69 618.18L354.65 618.21L354.6 618.23L354.55 618.26L354.51 618.28L354.46 618.3L354.41 618.33L354.35 618.35L354.3 618.37L354.25 618.38L354.2 618.4L354.14 618.42L354.09 618.43L354.03 618.45L353.97 618.46L353.92 618.47L353.86 618.48L353.81 618.49L353.76 618.5L353.7 618.5L353.65 618.51L353.6 618.51L353.55 618.51L353.49 618.51L353.44 618.51L353.39 618.51L353.34 618.51L353.28 618.5L353.23 618.49L353.18 618.48L353.13 618.47L353.07 618.46L353.02 618.45L352.97 618.43L352.92 618.42L352.87 618.4L352.82 618.38L352.77 618.36L352.72 618.33L352.67 618.31L352.62 618.28L352.57 618.26L352.52 618.23L352.47 618.2L352.43 618.17L352.38 618.13L352.34 618.1L352.29 618.06L352.25 618.02L352.21 617.98L352.17 617.94L352.13 617.9L352.09 617.86L352.05 617.81L352.01 617.76L351.98 617.72L351.94 617.67L351.49 617.12L347.33 625.68L347.31 625.71L347.29 625.74L347.28 625.77L347.26 625.8L347.24 625.83L347.23 625.85L347.21 625.88L347.19 625.91L347.18 625.93L347.16 625.96L347.14 625.99L347.12 626.01L347.11 626.04L347.09 626.06L347.07 626.09L347.06 626.11L347.04 626.13L347.02 626.16L347.01 626.18L346.99 626.2L346.97 626.23L346.96 626.25L346.94 626.27L346.92 626.29L346.91 626.32L346.89 626.34L346.87 626.36L346.85 626.38L346.84 626.4L346.82 626.42L346.8 626.44L346.79 626.46L346.77 626.49L346.75 626.51L346.74 626.53L346.72 626.55L346.7 626.57L346.65 626.63L335.96 635.19L335.95 635.24L335.94 635.28L335.93 635.33L335.91 635.37L335.9 635.42L335.88 635.46L335.87 635.49L335.85 635.53L335.83 635.57L335.81 635.6L335.79 635.63L335.77 635.66L335.75 635.69L335.73 635.72L335.71 635.74L335.68 635.77L335.66 635.79L335.63 635.81L335.6 635.83L335.58 635.85L335.55 635.86L335.52 635.88L335.49 635.9L335.46 635.91L335.43 635.92L335.4 635.93L335.37 635.94L335.34 635.95L335.31 635.96L335.28 635.97L335.24 635.97L335.21 635.98L335.18 635.99L335.14 635.99L335.11 635.99L335.08 636L335.04 636L335.01 636L334.98 636L334.94 636L301.17 636L301.14 636L301.1 636L301.07 636L301.03 636L301 635.99L300.97 635.99L300.93 635.99L300.9 635.98L300.87 635.98L300.83 635.97L300.8 635.97L300.77 635.96L300.73 635.96L300.7 635.95L300.67 635.94L300.64 635.93L300.6 635.93L300.57 635.92L300.54 635.91L300.51 635.9L300.48 635.89L300.44 635.88L300.41 635.87L300.38 635.85L300.35 635.84L300.32 635.83L300.29 635.81L300.26 635.8L300.23 635.79L300.2 635.77L300.17 635.76L300.15 635.74L300.12 635.72L300.09 635.71L300.06 635.69L300.04 635.67L300.01 635.65L299.98 635.63L299.96 635.61L299.93 635.59L289.24 627.04L289.21 627.02L289.19 627L289.16 626.98L289.14 626.95L289.11 626.93L289.09 626.91L289.07 626.89L289.05 626.87L289.02 626.85L289 626.83L288.98 626.81L288.96 626.79L288.94 626.77L288.92 626.75L288.9 626.72L288.88 626.7L288.87 626.68L288.85 626.66L288.83 626.63L288.81 626.61L288.8 626.59L288.78 626.57L288.76 626.54L288.75 626.52L288.73 626.49L288.72 626.47L288.71 626.44L288.69 626.42L288.68 626.39L288.67 626.37L288.65 626.34L288.64 626.32L288.63 626.29L288.62 626.26L288.61 626.23L288.6 626.2L288.59 626.18L288.58 626.15L288.57 626.12L288.56 626.09L284.39 617.53L283.94 618.07L283.91 618.11L283.87 618.15L283.84 618.19L283.8 618.23L283.76 618.27L283.72 618.31L283.68 618.34L283.64 618.38L283.59 618.41L283.55 618.45L283.51 618.48L283.46 618.51L283.41 618.55L283.37 618.58L283.32 618.61L283.27 618.63L283.22 618.66L283.17 618.69L283.12 618.71L283.07 618.74L283.02 618.76L282.97 618.78L282.92 618.8L282.87 618.82L282.81 618.83L282.76 618.85L282.71 618.86L282.66 618.87L282.6 618.89L282.55 618.89L282.5 618.9L282.45 618.91L282.39 618.91L282.34 618.91L282.29 618.91L282.24 618.91L282.18 618.91L282.13 618.9L282.08 618.9L282.03 618.89L281.98 618.88L281.93 618.86L281.88 618.85L281.83 618.84L281.78 618.82L281.73 618.8L281.68 618.78L281.63 618.76L281.58 618.74L281.53 618.71L281.48 618.69L281.43 618.66L281.38 618.64L281.34 618.61L281.29 618.58L281.24 618.55L281.19 618.51L281.15 618.48L281.1 618.45L281.06 618.41L281.02 618.38L280.97 618.34L280.93 618.3L280.89 618.26L280.85 618.22L280.81 618.18L280.77 618.14L280.73 618.1L280.69 618.05L280.65 618.01L280.62 617.96L280.58 617.92L280.55 617.87L280.52 617.83L280.48 617.78L280.45 617.73L280.42 617.68L280.39 617.63L280.37 617.58L280.34 617.53L271.9 598.52L263.45 583.03L263.44 583L263.42 582.97L263.41 582.94L263.39 582.91L263.38 582.88L263.36 582.85L263.35 582.82L263.33 582.79L263.32 582.76L263.31 582.73L263.29 582.69L263.28 582.66L263.27 582.63L263.26 582.6L263.25 582.57L263.24 582.54L263.23 582.5L263.22 582.47L263.21 582.44L263.2 582.41L263.19 582.37L263.19 582.34L263.18 582.31L263.17 582.27L263.16 582.24L263.16 582.2L263.15 582.17L263.15 582.13L263.14 582.1L263.14 582.06L263.13 582.02L263.13 581.99L263.13 581.95L263.12 581.91L263.12 581.87L263.12 581.83L263.12 581.8L263.12 581.76L263.12 581.72L263.12 581.68L260.64 536.45L259.06 522.46L255.69 514.04L255.67 513.98L255.65 513.92L255.64 513.89L255.64 513.86L255.63 513.83L255.62 513.8L255.61 513.77L255.6 513.74L255.6 513.71L255.59 513.67L255.58 513.64L255.57 513.61L255.57 513.58L255.56 513.55L255.55 513.52L255.54 513.49L255.54 513.46L255.53 513.43L255.53 513.4L255.52 513.37L255.51 513.34L255.51 513.31L255.5 513.28L255.5 513.25L255.49 513.22L255.49 513.19L255.48 513.16L255.48 513.12L255.48 513.09L255.47 513.06L255.47 513.03L255.47 513L255.47 512.97L255.46 512.94L255.46 512.91L255.46 512.88L255.46 512.85L255.46 512.82L255.46 492.86L249.83 484.43L224.95 476.97L224.93 476.95L224.9 476.94L224.87 476.93L224.85 476.92L224.82 476.91L224.79 476.9L224.77 476.88L224.74 476.87L224.71 476.85L224.68 476.84L224.65 476.83L224.63 476.81L224.6 476.79L224.57 476.78L224.54 476.76L224.51 476.75L224.49 476.73L224.46 476.71L224.43 476.69L224.4 476.68L224.38 476.66L224.35 476.64L224.32 476.62L224.3 476.6L224.27 476.58L224.24 476.57L224.22 476.55L224.19 476.53L224.17 476.51L224.14 476.49L224.12 476.47L224.1 476.45L224.08 476.43L224.05 476.41L224.03 476.39L224.01 476.37L223.99 476.35L223.97 476.33L223.96 476.31L223.94 476.29L198.04 445.46L197.99 445.4L197.95 445.33L197.9 445.27L197.86 445.2L197.81 445.13L197.77 445.06L197.73 444.99L197.7 444.92L197.66 444.85L197.63 444.78L197.59 444.7L197.56 444.63L197.54 444.55L197.51 444.47L197.49 444.4L197.46 444.32L197.44 444.24L197.43 444.16L197.41 444.08L197.4 444L197.39 443.92L197.38 443.83L197.37 443.75L197.36 443.67L197.36 443.58L197.36 443.5L197.36 443.42L197.37 443.33L197.37 443.25L197.38 443.17L197.39 443.08L197.4 443L197.42 442.91L197.44 442.83L197.46 442.75L197.48 442.66L197.5 442.58L197.53 442.5L197.56 442.42L197.59 442.33L199.28 437.72L195.23 437.72L195.17 437.71L195.11 437.71L195.05 437.71L195 437.7L194.94 437.7L194.88 437.69L194.83 437.68L194.77 437.67L194.72 437.65L194.66 437.64L194.61 437.62L194.55 437.61L194.5 437.59L194.45 437.57L194.4 437.54L194.35 437.52L194.3 437.49L194.24 437.47L194.2 437.44L194.15 437.41L194.1 437.38L194.05 437.35L194 437.31L193.96 437.28L193.91 437.24L193.87 437.2L193.82 437.16L193.78 437.12L193.74 437.07L193.69 437.03L193.65 436.98L193.61 436.93L193.57 436.88L193.53 436.83L193.5 436.78L193.46 436.73L193.42 436.67L193.39 436.61L193.35 436.55L193.32 436.49L169.9 393.03L169.87 392.97L169.84 392.91L169.81 392.85L169.78 392.79L169.75 392.72L169.73 392.66L169.7 392.6L169.68 392.53L169.66 392.47L169.64 392.4L169.63 392.34L169.61 392.27L169.6 392.21L169.59 392.14L169.58 392.07L169.57 392.01L169.56 391.94L169.55 391.88L169.55 391.81L169.55 391.74L169.55 391.68L169.55 391.61L169.55 391.55L169.55 391.48L169.56 391.41L169.56 391.35L169.57 391.28L169.58 391.22L169.59 391.15L169.6 391.09L169.61 391.02L169.63 390.96L169.64 390.89L169.66 390.83L169.68 390.76L169.7 390.7L169.72 390.64L169.74 390.58L169.76 390.51L169.79 390.45L169.81 390.39L169.84 390.33L169.87 390.27L169.9 390.21L169.93 390.16L169.96 390.1L169.99 390.04L170.03 389.99L170.06 389.93L170.1 389.88L170.14 389.82L170.18 389.77L170.22 389.72L170.26 389.67L170.3 389.62L170.34 389.58L170.38 389.53L170.43 389.49L170.47 389.44L170.52 389.4L170.57 389.36L170.61 389.32L170.66 389.29L170.71 389.25L170.76 389.22L170.81 389.19L170.86 389.16L170.92 389.13L170.97 389.1L171.02 389.08L171.08 389.06L171.13 389.04L171.19 389.02L171.24 389L171.3 388.99L171.36 388.98L171.41 388.97L171.47 388.96L171.53 388.96L171.59 388.96L181.04 387.47L181.08 387.46L181.11 387.45L181.15 387.44L181.18 387.43L181.22 387.43L181.25 387.42L181.29 387.42L181.33 387.42L181.36 387.42L181.4 387.41L181.44 387.42L181.47 387.42L181.51 387.42L181.55 387.42L181.59 387.43L181.62 387.43L181.66 387.44L181.7 387.45L181.74 387.46L181.78 387.47L181.81 387.48L181.85 387.49L181.89 387.5L181.93 387.51L181.97 387.53L182 387.55L182.04 387.56L182.08 387.58L182.12 387.6L182.15 387.62L182.19 387.64L182.23 387.66L182.26 387.68L182.3 387.71L182.33 387.73L182.37 387.76L182.41 387.79L182.44 387.81L182.47 387.84L182.51 387.87L216.51 412.32L235.53 413.95L235.57 413.95L235.6 413.95L235.64 413.95L235.67 413.96L235.71 413.96L235.74 413.97L235.78 413.97L235.82 413.98L235.85 413.99L235.89 414L235.92 414.01L235.96 414.02L236 414.03L236.03 414.04L236.07 414.06L236.11 414.07L236.14 414.09L236.18 414.1L236.22 414.12L236.25 414.14L236.29 414.15L236.32 414.17L236.36 414.19L236.39 414.21L236.43 414.23L236.46 414.26L236.5 414.28L236.53 414.3L236.56 414.33L236.59 414.35L236.63 414.37L236.66 414.4L236.69 414.43L236.72 414.45L236.75 414.48L236.78 414.51L236.81 414.54L236.83 414.57L236.86 414.6L236.89 414.63L244.32 422.91L240.94 415.31L151.77 367.77L151.77 367.77L151.76 367.77L151.75 367.77L151.74 367.77L151.73 367.77L151.72 367.76L151.71 367.76L151.71 367.76L151.7 367.75L151.69 367.75L151.68 367.74L151.67 367.74L151.66 367.73L151.66 367.73L151.65 367.72L151.64 367.72L151.63 367.71L151.62 367.7L151.61 367.7L151.6 367.69L151.6 367.68L151.59 367.67L151.58 367.66L151.57 367.66L151.56 367.65L151.55 367.64L151.55 367.63L151.54 367.62L151.53 367.61L151.52 367.6L151.51 367.59L151.5 367.57L151.49 367.56L151.47 367.54L151.44 367.51L151.44 367.5L78.15 308.02L78.12 308L78.1 307.97L78.07 307.95L78.04 307.93L78.02 307.91L77.99 307.88L77.97 307.86L77.94 307.84L77.92 307.81L77.9 307.79L77.87 307.76L77.85 307.73L77.82 307.71L77.8 307.68L77.78 307.65L77.75 307.62L77.73 307.6L77.71 307.57L77.69 307.54L77.67 307.51L77.65 307.48L77.63 307.44L77.61 307.41L77.59 307.38L77.57 307.35L77.55 307.31L77.53 307.28L77.51 307.25L77.5 307.21L77.48 307.18L77.47 307.14L77.45 307.1L77.44 307.07L77.42 307.03L77.41 306.99L77.4 306.95L77.39 306.91L77.38 306.87L77.37 306.83L77.36 306.79L43.92 210.91L0.46 133.36L0.43 133.3L0.4 133.24L0.37 133.18L0.34 133.11L0.31 133.05L0.29 132.99L0.26 132.92L0.24 132.86L0.21 132.8L0.19 132.73L0.17 132.67L0.15 132.6L0.14 132.53L0.12 132.47L0.11 132.4L0.09 132.34L0.08 132.27L0.07 132.21L0.06 132.14L0.06 132.07L0.05 132.01L0.05 131.94L0.04 131.87L0.04 131.81L0.04 131.74L0.05 131.68L0.05 131.61L0.05 131.55L0.06 131.48L0.07 131.41L0.08 131.35L0.09 131.29L0.1 131.22L0.12 131.16L0.13 131.09L0.15 131.03L0.17 130.97L0.19 130.91L0.21 130.84L0.24 130.78L36.94 29.33L36.98 29.24L37.01 29.15L37.05 29.07L37.1 28.98L37.14 28.9L37.19 28.82L37.24 28.74L37.29 28.67L37.34 28.6L37.39 28.53L37.45 28.46L37.51 28.39L37.57 28.33L37.63 28.27L37.69 28.21L37.76 28.16L37.82 28.11L37.89 28.06L37.96 28.02L38.02 27.97L38.09 27.93L38.17 27.9L38.24 27.87L38.31 27.84L38.38 27.81L38.46 27.79L38.53 27.77L38.61 27.75L38.69 27.74L38.76 27.73L38.84 27.72L38.92 27.72L38.99 27.72L39.07 27.73L39.15 27.73L39.22 27.75L39.3 27.76L39.38 27.78L39.45 27.81L39.53 27.84L39.61 27.86L39.7 27.89L39.78 27.92L39.85 27.95L39.93 27.99L40.01 28.03L40.08 28.07L40.15 28.12L40.22 28.17L40.28 28.23L40.35 28.28L40.41 28.34L40.47 28.4L40.53 28.47L40.59 28.54L40.64 28.61L40.7 28.68L40.75 28.75L40.79 28.83L40.84 28.91L40.88 28.99L40.92 29.07L40.96 29.15L41 29.24L41.03 29.32L41.06 29.41L41.09 29.5L41.12 29.59L41.14 29.68L41.16 29.77L41.18 29.86L41.19 29.95L41.21 30.04L41.22 30.13L41.22 30.23L41.23 30.32L41.23 30.41L41.23 30.51L41.23 30.6L41.22 30.69L33.68 123.31L58.11 158.22L69.81 151.97L77.13 107.56L77.15 107.47L77.17 107.38L77.19 107.29L77.22 107.2L77.25 107.11L77.28 107.03L77.31 106.95L77.34 106.86L77.38 106.78L77.42 106.7L77.46 106.63L77.51 106.55L77.55 106.48L77.6 106.4L77.65 106.33L77.7 106.27L77.75 106.2L77.81 106.14L77.86 106.07L77.92 106.01L77.98 105.96L78.04 105.9L78.11 105.85L78.17 105.8L78.24 105.75L78.3 105.71L78.37 105.66L78.44 105.62L78.52 105.59L78.59 105.55L78.66 105.52L78.74 105.49L78.82 105.47L78.89 105.45L78.97 105.43L79.05 105.41L79.13 105.4L79.22 105.39L79.3 105.39L79.38 105.39L79.47 105.39L79.55 105.39L79.63 105.4L79.71 105.41L79.79 105.43L79.87 105.45L79.95 105.47L80.03 105.5L80.1 105.52L80.18 105.56L80.25 105.59L80.32 105.63L80.39 105.67L80.46 105.71L80.53 105.76L80.59 105.81L80.65 105.86L80.72 105.91L80.78 105.97L80.83 106.03L80.89 106.09L80.94 106.16L81 106.23L81.05 106.3L81.09 106.37L81.14 106.44L81.18 106.52L81.22 106.6L81.26 106.68L81.3 106.76L81.33 106.85L81.37 106.93L81.39 107.02L81.42 107.11L81.45 107.21L81.47 107.3L81.48 107.4L81.5 107.49L81.51 107.59L81.52 107.69L84.34 128.88L111.36 77.27L127.12 9.77L127.15 9.67L127.17 9.58L127.21 9.48L127.24 9.38L127.28 9.29L127.31 9.2L127.35 9.11L127.4 9.03L127.44 8.95L127.49 8.87L127.54 8.79L127.59 8.71L127.64 8.64L127.7 8.57L127.75 8.5L127.81 8.44L127.87 8.38L127.93 8.32L128 8.27L128.06 8.21L128.13 8.16L128.2 8.12L128.26 8.07L128.33 8.03L128.41 8L128.48 7.96L128.55 7.93L128.63 7.91L128.7 7.88L128.78 7.86L128.86 7.85L128.94 7.84L129.02 7.83L129.1 7.82L129.18 7.82L129.26 7.82L129.34 7.83L129.43 7.84L129.51 7.86L129.6 7.87L129.68 7.89L129.76 7.9L129.84 7.92L129.92 7.95L130 7.97L130.08 8L130.15 8.04L130.23 8.08L130.3 8.12L130.37 8.16L130.44 8.21L130.51 8.26L130.57 8.32L130.63 8.37L130.7 8.43L130.76 8.5L130.81 8.56L130.87 8.63L130.92 8.7L130.97 8.77L131.02 8.85L131.07 8.93L131.12 9L131.16 9.09L131.2 9.17L131.24 9.25L131.27 9.34L131.31 9.43L131.34 9.52L131.37 9.61L131.39 9.7L131.42 9.8L131.44 9.89L131.46 9.99L131.47 10.09L131.49 10.19L131.5 10.29L131.5 10.39L131.51 10.49L131.51 10.59L130.83 77L130.83 77.03L130.83 77.06L130.83 77.09L130.83 77.12L130.83 77.15L130.83 77.18L130.82 77.21L130.82 77.24L130.82 77.27L130.81 77.3L130.81 77.33L130.81 77.36L130.8 77.39L130.8 77.42L130.79 77.45L130.79 77.48L130.78 77.51L130.78 77.54L130.77 77.57L130.76 77.6L130.76 77.62L130.75 77.65L130.74 77.68L130.74 77.71L130.73 77.73L130.72 77.76L130.71 77.78L130.71 77.81L130.7 77.84L130.69 77.86L130.68 77.89L130.68 77.91L130.67 77.93L130.66 77.96L130.65 77.98L130.64 78L130.63 78.02L130.63 78.05L130.62 78.07L130.61 78.09L113.27 121.28L120.25 118.56L120.28 118.55L120.32 118.54L120.35 118.53L120.39 118.52L120.42 118.51L120.45 118.51L120.49 118.5L120.52 118.49L120.56 118.49L120.59 118.48L120.62 118.48L120.66 118.47L120.69 118.47L120.72 118.47L120.76 118.46L120.79 118.46L120.83 118.46L120.86 118.46L120.89 118.46L120.93 118.46L120.96 118.46L120.99 118.46L121.03 118.46L121.06 118.46L121.1 118.46L121.13 118.47L121.16 118.47L121.2 118.47L121.23 118.48L121.26 118.48L121.3 118.49L121.33 118.49L121.37 118.5L121.4 118.51L121.43 118.51L121.47 118.52L121.5 118.53L121.53 118.54L121.57 118.55L121.6 118.56L144.34 126.98L144.42 127.01L144.49 127.05L144.57 127.08L144.64 127.12L144.71 127.16L144.78 127.21L144.84 127.25L144.91 127.3L144.97 127.35L145.03 127.41L145.09 127.46L145.15 127.52L145.21 127.58L145.26 127.64L145.32 127.7L145.37 127.77L145.42 127.84L145.47 127.91L145.51 127.98L145.55 128.05L145.59 128.12L145.63 128.2L145.67 128.28L145.71 128.36L145.74 128.44L145.77 128.52L145.8 128.61L145.82 128.69L145.84 128.78L145.86 128.87L145.88 128.96L145.9 129.05L145.91 129.15L145.92 129.24L145.93 129.34L145.93 129.43L145.93 129.53L145.93 129.63L145.93 129.73L145.92 129.83L145.91 129.93L145.9 130.03L145.88 130.13L145.87 130.23L145.85 130.32L145.82 130.41L145.8 130.51L145.77 130.59L145.74 130.68L145.71 130.77L145.68 130.85L145.64 130.93L145.61 131.01L145.57 131.09L145.53 131.17L145.48 131.24L145.44 131.31L145.39 131.38L145.34 131.45L145.29 131.51L145.23 131.58L145.18 131.64L145.12 131.69L145.06 131.75L145 131.8L144.94 131.85L144.87 131.9L144.81 131.95L144.74 131.99L144.67 132.03L144.6 132.07L144.53 132.1L144.45 132.13L144.38 132.16L144.3 132.19L144.22 132.21L144.14 132.23L144.06 132.25L143.98 132.26L143.89 132.28L118.11 135.94L90.08 168.95L85.24 213.08L102.58 272.03L145.69 319.15L149.63 280.85L149.64 280.75L149.66 280.65L149.67 280.56L149.69 280.46L149.71 280.36L149.74 280.27L149.76 280.18L149.79 280.09L149.82 280L149.86 279.92L149.89 279.83L149.93 279.75L149.97 279.67L150.02 279.6L150.06 279.52L150.11 279.45L150.16 279.37L150.21 279.31L150.27 279.24L150.32 279.17L150.38 279.11L150.44 279.05L150.5 278.99L150.57 278.94L150.63 278.88L150.7 278.83L150.77 278.79L150.84 278.74L150.91 278.7L150.98 278.66L151.05 278.62L151.13 278.59L151.21 278.55L151.28 278.52L151.36 278.5L151.44 278.47L151.52 278.45L151.61 278.44L151.69 278.42L151.77 278.41L151.86 278.41L151.94 278.42L152.02 278.42L152.1 278.43L152.18 278.45L152.26 278.46L152.34 278.48L152.42 278.5L152.49 278.53L152.57 278.56L152.64 278.59L152.71 278.62L152.78 278.66L152.85 278.7L152.92 278.74L152.99 278.78L153.05 278.83L153.12 278.88L153.18 278.93L153.24 278.99L153.3 279.04L153.35 279.1L153.41 279.17L153.46 279.23L153.51 279.3L153.56 279.37L153.61 279.44L153.65 279.51L153.7 279.59L153.74 279.67L153.78 279.75L153.81 279.83L153.85 279.92L153.88 280.01L153.91 280.1L153.94 280.19L153.96 280.29L153.99 280.38L154.01 280.48L154.03 280.58L162.58 331.78L228.44 363.97L228.46 363.98L228.47 363.99L228.49 364L228.51 364.01L228.52 364.02L228.54 364.03L228.55 364.04L228.57 364.05L228.58 364.06L228.59 364.07L228.61 364.08L228.62 364.09L228.63 364.1L228.65 364.11L228.66 364.12L228.67 364.13L228.68 364.14L228.75 364.19L228.76 364.2L228.77 364.21L228.79 364.22L228.8 364.24L228.81 364.25L228.83 364.26L228.84 364.27L228.85 364.28L228.87 364.29L228.88 364.3L228.9 364.31L228.91 364.32L228.92 364.33L228.94 364.34L228.96 364.35L228.97 364.36L228.99 364.37L229 364.38L250.51 384.48L249.38 342.51L243.98 319.97L243.96 319.89L243.95 319.8L243.94 319.72L243.93 319.64L243.92 319.55L243.91 319.47L243.91 319.39L243.91 319.3L243.91 319.22L243.91 319.14L243.92 319.05L243.92 318.97L243.93 318.89L243.94 318.81L243.96 318.72L243.97 318.64L243.99 318.56L244.01 318.48L244.03 318.4L244.05 318.32L244.07 318.24L244.1 318.16L244.13 318.09L244.16 318.01L244.19 317.94L244.22 317.86L244.26 317.79L244.29 317.72L244.33 317.65L244.37 317.58L244.42 317.51L244.46 317.45L244.51 317.38L244.55 317.32L244.6 317.26L244.66 317.2L244.71 317.14L244.76 317.09L244.82 317.03L244.88 316.98L244.94 316.93L245 316.88L245.06 316.84L245.12 316.8L245.19 316.76L245.25 316.73L245.32 316.7L245.39 316.67L245.45 316.64L245.52 316.62L245.59 316.6L245.66 316.58L245.73 316.57L245.8 316.55L245.87 316.55L245.94 316.54L246.01 316.53L246.09 316.53L246.16 316.53L246.23 316.54L246.3 316.54L246.37 316.55L246.44 316.56L246.52 316.58L246.59 316.59L246.66 316.61L246.73 316.63L246.8 316.66L246.87 316.68L246.94 316.71L247 316.74L247.07 316.78L247.14 316.81L247.21 316.85L247.27 316.89L247.33 316.93L247.4 316.97L247.46 317.02L247.52 317.07L247.58 317.12L265.14 333.96L265.18 333.99L265.21 334.02L265.24 334.05L265.27 334.09L265.31 334.12L265.34 334.16L265.37 334.19L265.4 334.23L265.43 334.27L265.46 334.31L265.48 334.35L265.51 334.39L265.54 334.43L265.56 334.47L265.59 334.51L265.62 334.56L265.64 334.6L265.66 334.65L265.68 334.69L265.71 334.74L265.73 334.78L265.75 334.83L265.77 334.88L265.78 334.92L265.8 334.97L265.82 335.02L265.83 335.07L265.85 335.12L265.86 335.17L265.87 335.22L265.88 335.27L265.89 335.32L265.9 335.37L265.91 335.42L265.92 335.47L265.92 335.52L265.93 335.57L265.93 335.62L265.93 335.67L265.93 335.72L272.12 394.12L287.55 410.15L307.14 408.79L307.18 408.79L307.22 408.79L307.26 408.79L307.3 408.79L307.34 408.79L307.38 408.8L307.42 408.8L307.46 408.81L307.5 408.81L307.54 408.82L307.58 408.82L307.62 408.83L307.65 408.84L307.69 408.84L307.73 408.85L307.76 408.86L307.8 408.87L307.84 408.88L307.87 408.89L307.91 408.91L307.95 408.92L307.98 408.93L308.02 408.95L308.05 408.96L308.09 408.98L308.12 409L308.16 409.02L308.19 409.03L308.23 409.05L308.26 409.07L308.29 409.1L308.33 409.12L308.36 409.14L308.4 409.17L308.43 409.19L308.46 409.22L308.5 409.24L308.53 409.27L308.57 409.3L308.6 409.33L317.72 417.62L326.84 409.33L326.87 409.3L326.91 409.27L326.94 409.24L326.98 409.22L327.01 409.19L327.05 409.17L327.08 409.14L327.12 409.12L327.16 409.1L327.19 409.07L327.23 409.05L327.27 409.03L327.31 409.02L327.35 409L327.39 408.98L327.42 408.96L327.46 408.95L327.5 408.93L327.54 408.92L327.58 408.91L327.62 408.89L327.66 408.88L327.7 408.87L327.75 408.86L327.79 408.85L327.83 408.84L327.87 408.84L327.91 408.83L327.95 408.82L327.99 408.82L328.04 408.81L328.08 408.81L328.12 408.8L328.16 408.8L328.2 408.79L328.25 408.79L328.29 408.79L328.33 408.79L328.37 408.79L328.41 408.79L347.67 410.55L363.88 393.58L380.65 363.43L395.85 337.49L395.89 337.42L395.94 337.35L395.99 337.28L396.03 337.22L396.09 337.16L396.14 337.1L396.19 337.04L396.25 336.98L396.31 336.93L396.37 336.88L396.43 336.83L396.49 336.79L396.55 336.74L396.61 336.7L396.68 336.66L396.75 336.62L396.81 336.59L396.88 336.56L396.95 336.53L397.02 336.5L397.09 336.48L397.16 336.46L397.23 336.44L397.3 336.42L397.37 336.41L397.44 336.4L397.52 336.39L397.59 336.38L397.66 336.38L397.73 336.38L397.81 336.38L397.88 336.39L397.95 336.4L398.02 336.41L398.09 336.42L398.16 336.44L398.23 336.46L398.3 336.48L398.37 336.51L398.44 336.54L398.51 336.57L398.57 336.6L398.64 336.64L398.7 336.68L398.77 336.72L398.83 336.76L398.89 336.81L398.95 336.86L399.01 336.91L399.06 336.96L399.12 337.02L399.17 337.07L399.23 337.13L399.28 337.19L399.33 337.25L399.38 337.32L399.42 337.38L399.47 337.45L399.51 337.52L399.55 337.59L399.59 337.66L399.63 337.73L399.66 337.81L399.7 337.89L399.73 337.96L399.76 338.04L399.78 338.12L399.81 338.2L399.83 338.29L399.85 338.37L399.87 338.45L399.88 338.54L399.89 338.63L399.9 338.71L399.91 338.8L399.91 338.89L399.92 338.98L399.91 339.07L399.91 339.16L399.9 339.25L398.33 361.8L398.33 361.84L398.33 361.86L398.33 361.87L398.33 361.89L398.33 361.91L398.33 361.93L398.33 361.95L398.33 361.96L398.32 361.98L398.32 362L398.32 362.01L398.32 362.03L398.32 362.04L398.32 362.06L398.32 362.08L398.32 362.09L398.32 362.11L398.31 362.12L398.31 362.14L398.31 362.15L398.31 362.17L398.31 362.18L398.3 362.2L398.3 362.21L398.3 362.23L398.29 362.25L398.29 362.26L398.28 362.28L398.28 362.29L398.27 362.31L398.27 362.33L398.26 362.34L398.26 362.36L398.25 362.38L398.24 362.4L398.24 362.42L398.23 362.44L398.22 362.46L398.21 362.48L395.85 370.76L406.88 364.11L406.89 364.11L406.9 364.1L406.9 364.1L406.91 364.1L406.91 364.1L406.91 364.1L406.92 364.1L406.93 364.09L406.93 364.09L406.94 364.09L406.94 364.09L406.95 364.08L406.95 364.08L406.96 364.08L406.96 364.07L406.96 364.07L406.97 364.06L406.97 364.06L406.97 364.05L406.98 364.05L406.98 364.04L406.98 364.04L406.99 364.03L406.99 364.02L406.99 364.02L406.99 364.01L406.99 364L406.99 363.99L407 363.98L407 363.97L473.87 331.24L486.82 322.28L532.97 271.89L550.31 212.95L545.47 168.81L516.99 135.13L516.97 135.11L516.95 135.09L516.94 135.07L516.92 135.04L516.9 135.02L516.89 135L516.87 134.97L516.85 134.95L516.84 134.93L516.82 134.9L516.8 134.88L516.79 134.85L516.77 134.83L516.76 134.8L516.74 134.78L516.72 134.75L516.71 134.73L516.69 134.7L516.68 134.68L516.66 134.65L516.65 134.63L516.63 134.6L516.62 134.58L516.61 134.55L516.59 134.53L516.58 134.5L516.57 134.48L516.55 134.45L516.54 134.43L516.53 134.4L516.52 134.38L516.5 134.35L516.49 134.33L516.48 134.31L516.47 134.29L516.46 134.26L516.45 134.24L516.44 134.22L516.43 134.2L516.42 134.18L512.6 121.95L512.57 121.88L512.55 121.81L512.53 121.74L512.51 121.67L512.5 121.59L512.48 121.52L512.47 121.45L512.46 121.37L512.45 121.3L512.45 121.22L512.44 121.15L512.44 121.07L512.44 121L512.44 120.92L512.44 120.85L512.45 120.77L512.45 120.7L512.46 120.63L512.47 120.55L512.48 120.48L512.5 120.4L512.51 120.33L512.53 120.26L512.55 120.18L512.57 120.11L512.59 120.04L512.61 119.97L512.64 119.9L512.66 119.83L512.69 119.76L512.72 119.69L512.75 119.62L512.78 119.55L512.82 119.49L512.85 119.42L512.89 119.35L512.93 119.29L512.97 119.23L513.01 119.16L513.05 119.1L513.09 119.04L513.13 118.98L513.18 118.93L513.23 118.87L513.27 118.82L513.32 118.77L513.37 118.73L513.42 118.68L513.47 118.64L513.53 118.6L513.58 118.56L513.64 118.52L513.69 118.49L513.75 118.45L513.8 118.42L513.86 118.39L513.92 118.37L513.98 118.35L514.04 118.32L514.1 118.3L514.16 118.29L514.23 118.27L514.29 118.26L514.35 118.25L514.42 118.24L514.48 118.24L514.54 118.24L514.61 118.24L514.68 118.24L514.74 118.24L514.81 118.25L514.87 118.26L514.94 118.27L515.01 118.29L515.07 118.3L515.14 118.32L515.21 118.34L515.28 118.37L515.34 118.39L515.41 118.42L522.39 121.14L505.05 77.95L505.04 77.91L505.02 77.87L505.01 77.83L504.99 77.79L504.98 77.75L504.97 77.71L504.96 77.67L504.94 77.63L504.93 77.59L504.92 77.54L504.91 77.5L504.91 77.46L504.9 77.42L504.89 77.38L504.88 77.34L504.88 77.3L504.87 77.26L504.87 77.22L504.86 77.18L504.86 77.14L504.85 77.1L504.85 77.06L504.85 77.01L504.84 76.97L504.84 76.93L504.84 76.89L504.84 76.85L504.83 76.81L504.83 76.77L504.83 76.73L504.83 76.69L504.83 76.65L504.83 76.61L504.83 76.57L504.83 76.53L504.83 76.49L504.83 76.44L504.83 76.4L504.83 76.36L504.83 76.32L508.77 45.76L508.78 45.67L508.79 45.58L508.81 45.49L508.82 45.41L508.84 45.32L508.86 45.23L508.89 45.15L508.91 45.07L508.94 44.99L508.97 44.91L509.01 44.83L509.04 44.75L509.08 44.68L509.12 44.6L509.16 44.53L509.2 44.46L509.24 44.4L509.29 44.33L509.34 44.27L509.39 44.2L509.44 44.14L509.49 44.08L509.55 44.03L509.6 43.98L509.66 43.92L509.72 43.87L509.78 43.83L509.84 43.78L509.91 43.74L509.97 43.7L510.04 43.67L510.11 43.63L510.17 43.6L510.24 43.57L510.31 43.54L510.39 43.52L510.46 43.5L510.53 43.48L510.61 43.47L510.68 43.46L510.76 43.45L510.83 43.44L510.91 43.44L510.98 43.44L511.06 43.44L511.13 43.45L511.2 43.46L511.27 43.47L511.35 43.48L511.42 43.5L511.49 43.52L511.56 43.54L511.62 43.57L511.69 43.6L511.76 43.63L511.82 43.66L511.89 43.69L511.95 43.73L512.01 43.77L512.08 43.81L512.14 43.86L512.2 43.9L512.25 43.95L512.31 44L512.37 44.06L512.42 44.11L512.48 44.17L512.53 44.23L512.58 44.29L512.63 44.35L512.68 44.42L512.73 44.49L512.77 44.55L512.82 44.63L512.86 44.7L512.9 44.77L512.94 44.85L512.98 44.93L513.01 45L513.05 45.09L524.19 76.87L554.36 134.59L559.99 143.28L560.78 127.52L560.78 127.47L560.78 127.42L560.79 127.37L560.79 127.32L560.79 127.27L560.8 127.23L560.8 127.18L560.81 127.13L560.81 127.09L560.82 127.04L560.83 126.99L560.84 126.95L560.85 126.9L560.86 126.86L560.87 126.82L560.88 126.77L560.89 126.73L560.91 126.69L560.92 126.65L560.94 126.61L560.95 126.57L560.97 126.53L560.98 126.49L561 126.45L561.02 126.41L561.04 126.37L561.05 126.33L561.07 126.3L561.09 126.26L561.11 126.22L561.13 126.19L561.16 126.15L561.18 126.12L561.2 126.09L561.22 126.05L561.25 126.02L561.27 125.99L561.29 125.96L561.32 125.92L561.34 125.89L575.53 107.15L575.58 107.08L575.63 107.01L575.69 106.95L575.75 106.89L575.8 106.83L575.86 106.78L575.92 106.73L575.98 106.68L576.05 106.63L576.11 106.59L576.17 106.55L576.24 106.51L576.31 106.48L576.38 106.45L576.44 106.42L576.51 106.39L576.58 106.37L576.65 106.35L576.72 106.33L576.8 106.32L576.87 106.31L576.94 106.3L577.01 106.29L577.09 106.29L577.16 106.29L577.23 106.29L577.31 106.3L577.38 106.31L577.45 106.32L577.52 106.33L577.6 106.35L577.67 106.36L577.74 106.39L577.81 106.41L577.88 106.44L577.96 106.47L578.03 106.5L578.09 106.53L578.16 106.57L578.23 106.61L578.3 106.65L578.36 106.69L578.43 106.74L578.49 106.79L578.55 106.84L578.61 106.9L578.66 106.95L578.72 107.01L578.77 107.07L578.82 107.13L578.87 107.2L578.92 107.26L578.96 107.33L579.01 107.4L579.05 107.47L579.09 107.54L579.13 107.62L579.16 107.69L579.2 107.77L579.23 107.85L579.26 107.93L579.29 108.01L579.32 108.09L579.34 108.17L579.37 108.26L579.39 108.34L579.41 108.43L579.42 108.51L579.44 108.6L579.45 108.69L579.46 108.78L579.47 108.87L579.48 108.96L579.48 109.05L579.49 109.14L579.49 109.23L579.49 109.32L579.48 109.41L579.48 109.5L579.47 109.6L575.19 135.67L579.58 155.09L601.87 123.18L581.38 3.26L581.37 3.15L581.36 3.05L581.35 2.95L581.34 2.85L581.34 2.75L581.34 2.65L581.35 2.55L581.35 2.45L581.36 2.35L581.38 2.25L581.39 2.16L581.41 2.06L581.43 1.96L581.45 1.87L581.48 1.78L581.51 1.69L581.54 1.6L581.58 1.51L581.61 1.42L581.65 1.34L581.69 1.25L581.74 1.17L581.78 1.09L581.83 1.02L581.88 0.94L581.93 0.87L581.99 0.8L582.04 0.73L582.1 0.66L582.16 0.6L582.22 0.54L582.28 0.48L582.35 0.43L582.42 0.38L582.48 0.33L582.55 0.28L582.63 0.24L582.7 0.2L582.77 0.16L582.85 0.13L582.93 0.1L583.02 0.08L583.1 0.06L583.18 0.04L583.27 0.02L583.35 0.01L583.43 0L583.52 0L583.6 0L583.68 0L583.76 0.01ZM606.95 123.65L606.95 123.71L606.96 123.77L606.97 123.83L606.97 123.89L606.97 123.95L606.98 124.01L606.98 124.07L606.98 124.13L606.98 124.19L606.98 124.25L606.98 124.31L606.97 124.37L606.97 124.43L606.97 124.49L606.96 124.55L606.95 124.61L606.94 124.67L606.94 124.73L606.93 124.79L606.91 124.85L606.9 124.91L606.89 124.96L606.87 125.02L606.86 125.08L606.84 125.14L606.83 125.19L606.81 125.25L606.79 125.31L606.77 125.36L606.74 125.42L606.72 125.47L606.7 125.53L606.67 125.58L606.64 125.63L606.61 125.69L606.59 125.74L606.55 125.79L606.52 125.84L606.49 125.89L580.71 162.83L580.67 162.89L580.62 162.95L580.58 163.01L580.53 163.06L580.49 163.11L580.44 163.16L580.39 163.21L580.34 163.26L580.3 163.3L580.25 163.35L580.2 163.39L580.14 163.42L580.09 163.46L580.04 163.5L579.99 163.53L579.93 163.56L579.88 163.59L579.82 163.62L579.77 163.64L579.71 163.67L579.65 163.69L579.59 163.71L579.54 163.73L579.48 163.74L579.42 163.76L579.36 163.77L579.3 163.78L579.23 163.79L579.17 163.8L579.11 163.81L579.05 163.81L578.98 163.82L578.92 163.82L578.85 163.82L578.79 163.82L578.72 163.81L578.66 163.81L578.59 163.8L578.52 163.79L578.46 163.78L578.4 163.76L578.34 163.74L578.28 163.72L578.22 163.69L578.17 163.66L578.11 163.64L578.06 163.61L578 163.57L577.95 163.54L577.89 163.51L577.84 163.47L577.79 163.43L577.74 163.4L577.69 163.36L577.64 163.31L577.59 163.27L577.54 163.23L577.49 163.18L577.45 163.14L577.4 163.09L577.36 163.04L577.31 162.99L577.27 162.94L577.23 162.89L577.19 162.83L577.16 162.78L577.12 162.72L577.08 162.66L577.05 162.6L577.02 162.54L576.98 162.48L576.95 162.42L576.93 162.36L576.9 162.29L576.87 162.23L576.85 162.16L576.83 162.09L576.81 162.02L576.79 161.95L576.77 161.88L571.14 136.76L571.13 136.73L571.12 136.7L571.12 136.67L571.11 136.64L571.1 136.61L571.1 136.57L571.09 136.54L571.08 136.51L571.08 136.48L571.08 136.45L571.07 136.42L571.07 136.39L571.06 136.36L571.06 136.33L571.06 136.3L571.06 136.27L571.06 136.24L571.06 136.21L571.05 136.18L571.05 136.15L571.05 136.12L571.06 136.09L571.06 136.06L571.06 136.02L571.06 135.99L571.06 135.96L571.06 135.93L571.07 135.9L571.07 135.87L571.08 135.84L571.08 135.81L571.08 135.78L571.09 135.75L571.1 135.72L571.1 135.69L571.11 135.66L571.12 135.63L571.12 135.6L571.13 135.57L571.14 135.54L573.95 118.42L565.74 129.29L564.61 151.15L564.6 151.24L564.59 151.32L564.58 151.4L564.56 151.48L564.55 151.55L564.53 151.63L564.51 151.71L564.49 151.79L564.47 151.86L564.44 151.94L564.42 152.01L564.39 152.08L564.36 152.16L564.33 152.23L564.3 152.3L564.27 152.37L564.23 152.43L564.19 152.5L564.16 152.57L564.12 152.63L564.08 152.69L564.03 152.76L563.99 152.82L563.94 152.88L563.9 152.93L563.85 152.99L563.8 153.04L563.75 153.1L563.7 153.15L563.64 153.2L563.59 153.25L563.53 153.29L563.47 153.34L563.42 153.38L563.35 153.42L563.29 153.46L563.23 153.5L563.17 153.53L563.1 153.57L563.03 153.6L562.97 153.62L562.9 153.64L562.83 153.65L562.76 153.66L562.69 153.67L562.62 153.68L562.55 153.69L562.48 153.7L562.41 153.7L562.35 153.7L562.28 153.7L562.21 153.69L562.14 153.69L562.07 153.68L562 153.67L561.93 153.66L561.87 153.64L561.8 153.62L561.73 153.6L561.67 153.58L561.6 153.56L561.54 153.53L561.47 153.5L561.41 153.47L561.35 153.44L561.29 153.4L561.23 153.36L561.17 153.32L561.11 153.28L561.05 153.24L561 153.19L560.94 153.14L560.89 153.09L560.84 153.03L560.79 152.97L560.74 152.91L560.69 152.85L560.64 152.79L560.6 152.72L560.56 152.65L551.21 138.12L551.21 138.11L551.21 138.1L551.21 138.09L551.21 138.08L551.21 138.07L551.21 138.06L551.2 138.06L551.2 138.05L551.2 138.04L551.19 138.04L551.19 138.03L551.19 138.02L551.18 138.02L551.18 138.01L551.18 138.01L551.17 138L551.16 137.99L551.15 137.98L551.14 137.97L551.14 137.95L551.13 137.95L551.13 137.94L551.12 137.94L551.12 137.93L551.12 137.93L551.11 137.92L551.11 137.91L551.11 137.9L551.11 137.9L551.1 137.89L551.1 137.88L551.1 137.87L551.1 137.86L551.1 137.85L551.1 137.84L520.7 79.85L520.69 79.84L520.69 79.83L520.68 79.82L520.67 79.81L520.67 79.8L520.66 79.79L520.65 79.78L520.65 79.77L520.64 79.76L520.64 79.75L520.63 79.74L520.63 79.73L520.62 79.72L520.62 79.71L520.61 79.7L520.61 79.69L520.6 79.68L520.58 79.63L520.58 79.62L520.57 79.61L520.57 79.6L520.56 79.59L520.56 79.58L520.55 79.57L520.55 79.56L520.54 79.55L520.54 79.54L520.53 79.53L520.53 79.52L520.52 79.51L520.51 79.5L520.51 79.49L520.5 79.48L520.49 79.47L520.49 79.46L520.48 79.45L512.37 56.22L509.78 76.46L529.03 124.54L529.06 124.61L529.08 124.68L529.1 124.75L529.12 124.83L529.14 124.9L529.16 124.98L529.17 125.06L529.18 125.13L529.19 125.21L529.2 125.29L529.21 125.37L529.22 125.45L529.22 125.52L529.22 125.6L529.22 125.68L529.22 125.76L529.22 125.84L529.22 125.92L529.21 126L529.2 126.08L529.19 126.16L529.18 126.24L529.17 126.32L529.16 126.39L529.14 126.47L529.12 126.55L529.1 126.62L529.08 126.7L529.06 126.77L529.03 126.85L529.01 126.92L528.98 126.99L528.95 127.06L528.92 127.13L528.89 127.2L528.85 127.27L528.81 127.33L528.78 127.4L528.74 127.46L528.7 127.52L528.65 127.58L528.61 127.64L528.56 127.7L528.51 127.75L528.46 127.8L528.41 127.85L528.36 127.9L528.31 127.95L528.26 127.99L528.2 128.03L528.14 128.07L528.09 128.11L528.03 128.15L527.97 128.18L527.91 128.21L527.85 128.24L527.79 128.27L527.72 128.29L527.66 128.32L527.6 128.34L527.53 128.36L527.47 128.37L527.41 128.39L527.34 128.4L527.28 128.41L527.21 128.42L527.15 128.43L527.08 128.44L527.02 128.44L526.95 128.44L526.89 128.44L526.83 128.44L526.76 128.43L526.7 128.42L526.64 128.41L526.57 128.4L526.51 128.39L526.45 128.37L526.39 128.36L526.33 128.34L518.68 125.49L520.7 131.87L549.41 165.82L549.44 165.85L549.46 165.88L549.48 165.92L549.51 165.95L549.53 165.98L549.56 166.01L549.58 166.05L549.6 166.08L549.62 166.12L549.64 166.15L549.66 166.19L549.68 166.23L549.7 166.26L549.72 166.3L549.74 166.34L549.76 166.38L549.78 166.41L549.8 166.45L549.82 166.49L549.83 166.53L549.85 166.58L549.87 166.62L549.88 166.66L549.9 166.7L549.91 166.74L549.93 166.79L549.94 166.83L549.95 166.88L549.97 166.92L549.98 166.97L549.99 167.01L550.01 167.06L550.02 167.11L550.03 167.16L550.04 167.2L550.05 167.25L550.06 167.3L550.07 167.35L550.08 167.4L550.09 167.45L555.15 213.22L555.15 213.28L555.15 213.34L555.15 213.37L555.15 213.4L555.15 213.43L555.15 213.46L555.15 213.49L555.15 213.53L555.15 213.56L555.15 213.59L555.15 213.62L555.15 213.65L555.15 213.68L555.15 213.71L555.14 213.74L555.14 213.77L555.14 213.8L555.14 213.83L555.14 213.86L555.13 213.89L555.13 213.92L555.13 213.95L555.12 213.98L555.12 214.01L555.12 214.04L555.11 214.08L555.11 214.11L555.1 214.14L555.1 214.17L555.09 214.2L555.09 214.23L555.08 214.26L555.08 214.29L555.07 214.32L555.06 214.35L555.06 214.38L555.05 214.41L555.04 214.44L537.36 274.74L537.36 274.77L537.35 274.8L537.34 274.83L537.33 274.86L537.32 274.89L537.31 274.93L537.3 274.96L537.28 274.99L537.27 275.02L537.26 275.05L537.25 275.08L537.24 275.11L537.22 275.13L537.21 275.16L537.2 275.19L537.18 275.22L537.17 275.25L537.15 275.28L537.14 275.31L537.13 275.34L537.11 275.36L537.1 275.39L537.08 275.42L537.06 275.45L537.05 275.47L537.03 275.5L537.02 275.53L537 275.55L536.99 275.58L536.97 275.6L536.95 275.63L536.94 275.65L536.92 275.67L536.9 275.7L536.89 275.72L536.87 275.74L536.85 275.77L536.84 275.79L536.82 275.81L536.8 275.83L489.97 326.89L489.94 326.92L489.93 326.93L489.92 326.95L489.91 326.97L489.89 326.99L489.88 327L489.87 327.01L489.86 327.02L489.85 327.03L489.84 327.04L489.84 327.05L489.83 327.06L489.82 327.07L489.81 327.08L489.8 327.09L489.78 327.1L489.77 327.11L489.76 327.12L489.75 327.13L489.74 327.14L489.73 327.15L489.72 327.16L489.71 327.17L489.69 327.18L489.68 327.19L489.67 327.2L489.65 327.21L489.64 327.22L489.63 327.23L489.61 327.24L489.6 327.25L489.58 327.26L489.57 327.27L489.55 327.28L489.53 327.29L489.52 327.3L476.23 336.4L476.22 336.4L476.22 336.4L476.21 336.4L476.2 336.4L476.19 336.41L476.18 336.41L476.17 336.41L476.17 336.41L476.16 336.42L476.15 336.42L476.14 336.43L476.13 336.43L476.13 336.43L476.12 336.44L476.11 336.44L476.11 336.45L476.1 336.45L476.09 336.46L476.08 336.46L476.08 336.47L476.07 336.47L476.07 336.48L476.06 336.48L476.05 336.49L476.04 336.5L476.03 336.51L476.03 336.52L476.02 336.52L476.01 336.53L476.01 336.54L409.02 369.27L393.15 378.77L393.09 378.81L393.03 378.85L392.97 378.88L392.91 378.91L392.84 378.94L392.78 378.96L392.72 378.99L392.65 379.01L392.59 379.02L392.52 379.03L392.46 379.05L392.39 379.05L392.33 379.06L392.26 379.06L392.2 379.06L392.13 379.06L392.06 379.06L392 379.05L391.93 379.04L391.87 379.03L391.8 379.01L391.74 379L391.67 378.98L391.61 378.96L391.54 378.94L391.48 378.91L391.42 378.89L391.36 378.86L391.29 378.83L391.23 378.79L391.17 378.76L391.11 378.72L391.05 378.68L391 378.64L390.94 378.6L390.88 378.56L390.83 378.51L390.77 378.46L390.72 378.42L390.67 378.37L390.62 378.31L390.57 378.26L390.53 378.2L390.48 378.15L390.44 378.09L390.4 378.03L390.36 377.96L390.32 377.9L390.28 377.83L390.25 377.77L390.22 377.7L390.18 377.63L390.16 377.56L390.13 377.48L390.1 377.41L390.08 377.33L390.05 377.26L390.03 377.18L390.01 377.1L390 377.03L389.98 376.95L389.97 376.87L389.95 376.79L389.94 376.7L389.93 376.62L389.92 376.54L389.92 376.46L389.91 376.37L389.91 376.29L389.91 376.21L389.91 376.12L389.91 376.04L389.92 375.96L389.92 375.87L389.93 375.79L389.94 375.71L389.95 375.62L389.97 375.54L389.98 375.46L390 375.38L394.05 361.25L394.95 349.03L384.59 366.82L367.7 397.24L367.7 397.25L367.69 397.27L367.68 397.28L367.67 397.29L367.66 397.3L367.65 397.31L367.64 397.33L367.64 397.34L367.63 397.35L367.62 397.37L367.58 397.42L367.57 397.44L367.56 397.45L367.55 397.47L367.54 397.49L367.53 397.5L367.52 397.52L367.51 397.53L367.5 397.55L367.49 397.56L367.48 397.58L367.47 397.59L367.45 397.61L367.44 397.62L367.43 397.64L367.42 397.65L367.4 397.66L367.39 397.68L367.38 397.69L367.36 397.7L367.35 397.72L367.33 397.73L367.32 397.74L367.3 397.75L367.29 397.77L367.27 397.78L367.25 397.79L350.14 415.71L350.11 415.74L350.07 415.77L350.04 415.8L350 415.83L349.97 415.86L349.93 415.89L349.9 415.92L349.86 415.94L349.82 415.97L349.78 415.99L349.74 416.02L349.71 416.04L349.67 416.06L349.63 416.09L349.59 416.11L349.55 416.13L349.51 416.15L349.47 416.17L349.42 416.19L349.38 416.21L349.34 416.22L349.3 416.24L349.25 416.26L349.21 416.27L349.17 416.29L349.12 416.3L349.08 416.31L349.03 416.32L348.98 416.33L348.94 416.34L348.89 416.35L348.85 416.36L348.8 416.37L348.75 416.38L348.7 416.38L348.65 416.39L348.6 416.39L348.55 416.39L348.5 416.39L348.45 416.39L329.09 414.63L319.29 423.59L319.23 423.64L319.17 423.69L319.11 423.73L319.05 423.77L318.98 423.81L318.92 423.85L318.85 423.89L318.79 423.92L318.72 423.95L318.65 423.97L318.58 424L318.51 424.02L318.44 424.04L318.37 424.05L318.3 424.07L318.23 424.08L318.16 424.09L318.09 424.1L318.02 424.1L317.94 424.1L317.87 424.1L317.8 424.1L317.73 424.09L317.66 424.08L317.59 424.07L317.52 424.05L317.44 424.04L317.37 424.02L317.31 424L317.24 423.97L317.17 423.95L317.1 423.92L317.03 423.89L316.97 423.85L316.9 423.81L316.84 423.77L316.78 423.73L316.71 423.69L316.65 423.64L316.59 423.59L306.8 414.63L287.1 415.99L287.05 415.99L287.01 415.98L286.97 415.98L286.93 415.98L286.89 415.98L286.84 415.98L286.8 415.97L286.76 415.97L286.72 415.96L286.68 415.96L286.63 415.95L286.59 415.94L286.55 415.93L286.51 415.92L286.47 415.91L286.43 415.9L286.39 415.89L286.35 415.88L286.31 415.86L286.27 415.85L286.23 415.83L286.19 415.82L286.15 415.8L286.11 415.78L286.07 415.76L286.03 415.74L285.99 415.72L285.95 415.69L285.92 415.67L285.88 415.64L285.84 415.61L285.8 415.59L285.77 415.56L285.73 415.52L285.69 415.49L285.66 415.46L285.62 415.42L285.59 415.39L285.55 415.35L285.52 415.31L268.75 397.79L268.71 397.76L268.68 397.72L268.65 397.69L268.62 397.66L268.59 397.62L268.56 397.59L268.53 397.55L268.5 397.51L268.47 397.47L268.45 397.43L268.42 397.4L268.4 397.35L268.37 397.31L268.35 397.27L268.33 397.23L268.31 397.19L268.28 397.14L268.26 397.1L268.24 397.05L268.23 397.01L268.21 396.96L268.19 396.91L268.17 396.87L268.15 396.82L268.14 396.77L268.12 396.72L268.11 396.67L268.09 396.63L268.08 396.58L268.06 396.53L268.05 396.48L268.04 396.43L268.03 396.38L268.02 396.33L268.01 396.28L267.99 396.23L267.98 396.17L267.98 396.12L267.97 396.07L267.96 396.02L261.77 337.62L250.51 326.89L254.11 341.56L254.11 341.58L254.11 341.6L254.11 341.62L254.11 341.64L254.11 341.66L254.12 341.68L254.12 341.69L254.12 341.71L254.12 341.73L254.13 341.74L254.13 341.76L254.13 341.78L254.14 341.79L254.14 341.81L254.15 341.82L254.15 341.84L254.15 341.85L254.16 341.87L254.17 341.93L254.18 341.95L254.18 341.96L254.19 341.98L254.19 341.99L254.19 342.01L254.2 342.03L254.2 342.04L254.21 342.06L254.21 342.07L254.21 342.09L254.21 342.11L254.22 342.13L254.22 342.14L254.22 342.16L254.22 342.18L254.22 342.2L254.22 342.22L254.22 342.24L255.46 390.32L255.46 390.4L255.46 390.48L255.45 390.56L255.45 390.64L255.44 390.72L255.43 390.8L255.42 390.87L255.41 390.95L255.39 391.03L255.38 391.1L255.36 391.17L255.34 391.25L255.32 391.32L255.3 391.39L255.28 391.46L255.25 391.53L255.23 391.6L255.2 391.66L255.17 391.73L255.14 391.79L255.11 391.86L255.07 391.92L255.04 391.98L255 392.04L254.96 392.1L254.92 392.15L254.88 392.21L254.84 392.26L254.79 392.31L254.75 392.36L254.7 392.41L254.65 392.46L254.6 392.5L254.55 392.54L254.5 392.58L254.45 392.62L254.39 392.66L254.34 392.7L254.28 392.73L254.22 392.76L254.16 392.8L254.1 392.84L254.04 392.87L253.98 392.9L253.92 392.93L253.86 392.96L253.8 392.99L253.74 393.01L253.68 393.03L253.62 393.04L253.55 393.06L253.49 393.07L253.43 393.08L253.37 393.09L253.31 393.09L253.24 393.1L253.18 393.1L253.12 393.1L253.06 393.09L253 393.08L252.94 393.08L252.88 393.06L252.82 393.05L252.76 393.04L252.7 393.02L252.64 393L252.58 392.98L252.52 392.95L252.46 392.92L252.4 392.9L252.34 392.86L252.29 392.83L252.23 392.8L252.18 392.76L252.12 392.72L252.07 392.68L252.01 392.63L251.96 392.59L251.91 392.54L251.86 392.49L226.87 369.13L160.1 336.54L160.05 336.51L160 336.47L159.95 336.44L159.91 336.41L159.86 336.37L159.81 336.33L159.76 336.3L159.72 336.26L159.67 336.22L159.62 336.18L159.58 336.14L159.54 336.1L159.49 336.05L159.45 336.01L159.41 335.96L159.37 335.92L159.33 335.87L159.29 335.82L159.25 335.77L159.22 335.72L159.18 335.67L159.15 335.62L159.12 335.56L159.08 335.51L159.05 335.45L159.02 335.4L158.99 335.34L158.97 335.28L158.94 335.22L158.92 335.16L158.89 335.1L158.87 335.04L158.85 334.97L158.83 334.91L158.82 334.84L158.8 334.78L158.79 334.71L158.77 334.64L158.76 334.57L158.75 334.5L152.67 298.24L149.97 325.13L149.96 325.2L149.95 325.27L149.94 325.34L149.93 325.41L149.91 325.48L149.89 325.55L149.87 325.62L149.85 325.69L149.83 325.76L149.81 325.83L149.78 325.9L149.76 325.97L149.73 326.03L149.7 326.1L149.67 326.16L149.64 326.23L149.6 326.29L149.57 326.35L149.53 326.41L149.49 326.47L149.46 326.53L149.42 326.58L149.37 326.64L149.33 326.69L149.29 326.75L149.24 326.8L149.2 326.84L149.15 326.89L149.1 326.94L149.05 326.98L149 327.02L148.95 327.06L148.9 327.1L148.85 327.14L148.79 327.17L148.74 327.2L148.68 327.23L148.63 327.26L148.57 327.28L148.51 327.3L148.45 327.33L148.39 327.36L148.33 327.38L148.27 327.4L148.21 327.42L148.15 327.44L148.09 327.45L148.03 327.47L147.97 327.48L147.9 327.48L147.84 327.49L147.78 327.49L147.72 327.49L147.66 327.49L147.6 327.49L147.54 327.48L147.48 327.47L147.42 327.46L147.36 327.45L147.3 327.44L147.24 327.42L147.18 327.4L147.12 327.38L147.07 327.36L147.01 327.34L146.95 327.31L146.9 327.28L146.84 327.25L146.79 327.22L146.74 327.19L146.68 327.15L146.63 327.11L146.58 327.08L146.53 327.04L146.48 326.99L146.44 326.95L146.39 326.9L146.34 326.86L146.3 326.81L146.26 326.76L99.42 275.69L99.41 275.67L99.39 275.65L99.37 275.63L99.36 275.61L99.34 275.59L99.32 275.56L99.31 275.54L99.29 275.51L99.27 275.49L99.26 275.47L99.24 275.44L99.22 275.42L99.21 275.39L99.19 275.36L99.18 275.34L99.16 275.31L99.15 275.28L99.13 275.26L99.11 275.23L99.1 275.2L99.09 275.17L99.07 275.14L99.06 275.12L99.04 275.09L99.03 275.06L99.02 275.03L99 275L98.99 274.97L98.98 274.94L98.96 274.91L98.95 274.88L98.94 274.85L98.93 274.82L98.92 274.79L98.91 274.76L98.9 274.73L98.89 274.7L98.88 274.67L98.87 274.64L98.86 274.61L81.07 214.31L81.06 214.28L81.06 214.25L81.05 214.21L81.04 214.18L81.04 214.15L81.03 214.12L81.02 214.09L81.02 214.06L81.01 214.03L81.01 214L81 213.97L81 213.94L80.99 213.91L80.99 213.88L80.99 213.85L80.98 213.82L80.98 213.79L80.98 213.76L80.98 213.73L80.97 213.7L80.97 213.66L80.97 213.63L80.97 213.6L80.97 213.57L80.97 213.54L80.97 213.51L80.96 213.48L80.96 213.45L80.96 213.42L80.96 213.39L80.96 213.36L80.96 213.33L80.96 213.3L80.96 213.27L80.96 213.24L80.96 213.21L80.96 213.15L80.96 213.08L86.03 167.32L86.04 167.27L86.04 167.23L86.05 167.19L86.06 167.15L86.07 167.11L86.08 167.06L86.1 167.02L86.11 166.98L86.12 166.93L86.13 166.89L86.14 166.85L86.16 166.8L86.17 166.76L86.19 166.71L86.2 166.67L86.22 166.62L86.23 166.58L86.25 166.54L86.26 166.49L86.28 166.45L86.3 166.41L86.31 166.36L86.33 166.32L86.35 166.28L86.37 166.24L86.39 166.2L86.41 166.16L86.43 166.12L86.45 166.08L86.47 166.04L86.49 166L86.51 165.96L86.53 165.92L86.56 165.89L86.58 165.85L86.6 165.82L86.63 165.78L86.65 165.75L86.68 165.72L86.7 165.69L115.75 131.33L115.77 131.3L115.8 131.27L115.83 131.24L115.85 131.21L115.88 131.18L115.91 131.15L115.94 131.12L115.96 131.1L115.99 131.07L116.02 131.05L116.05 131.02L116.08 131L116.11 130.97L116.14 130.95L116.18 130.92L116.21 130.9L116.24 130.88L116.27 130.86L116.31 130.84L116.34 130.82L116.37 130.8L116.41 130.78L116.44 130.76L116.48 130.74L116.51 130.72L116.55 130.7L116.59 130.69L116.62 130.67L116.66 130.65L116.7 130.64L116.74 130.62L116.77 130.61L116.81 130.59L116.85 130.58L116.89 130.57L116.93 130.56L116.97 130.54L117.02 130.53L117.06 130.52L117.1 130.51L133.09 128.2L121.26 123.86L109.89 128.2L109.83 128.22L109.76 128.24L109.69 128.25L109.62 128.27L109.56 128.28L109.49 128.29L109.42 128.29L109.36 128.3L109.29 128.3L109.22 128.3L109.16 128.3L109.09 128.3L109.03 128.29L108.96 128.29L108.9 128.28L108.83 128.27L108.77 128.25L108.71 128.24L108.65 128.22L108.58 128.2L108.52 128.18L108.46 128.16L108.4 128.13L108.35 128.1L108.29 128.07L108.23 128.04L108.17 128.01L108.12 127.97L108.06 127.94L108.01 127.9L107.96 127.85L107.9 127.81L107.85 127.77L107.8 127.72L107.76 127.67L107.71 127.62L107.66 127.56L107.62 127.51L107.57 127.45L107.53 127.39L107.49 127.33L107.45 127.26L107.41 127.2L107.37 127.13L107.34 127.06L107.31 127L107.28 126.93L107.25 126.85L107.22 126.78L107.19 126.71L107.17 126.64L107.14 126.56L107.12 126.49L107.1 126.41L107.09 126.33L107.07 126.26L107.06 126.18L107.04 126.1L107.03 126.02L107.02 125.94L107.02 125.87L107.01 125.79L107.01 125.71L107 125.63L107 125.55L107 125.47L107.01 125.39L107.01 125.31L107.02 125.23L107.02 125.15L107.03 125.07L107.04 125L107.06 124.92L107.07 124.84L107.09 124.77L107.1 124.69L107.12 124.62L107.14 124.54L107.17 124.47L107.19 124.4L126.56 76.19L127.01 30.96L115.86 79.04L115.85 79.06L115.84 79.08L115.84 79.1L115.83 79.12L115.82 79.14L115.82 79.16L115.81 79.18L115.8 79.2L115.8 79.22L115.79 79.24L115.79 79.26L115.78 79.28L115.78 79.3L115.77 79.32L115.77 79.34L115.76 79.36L115.75 79.41L115.75 79.43L115.74 79.45L115.74 79.46L115.74 79.48L115.73 79.5L115.73 79.51L115.72 79.53L115.72 79.55L115.71 79.56L115.71 79.58L115.7 79.59L115.7 79.61L115.69 79.62L115.69 79.63L115.68 79.65L115.67 79.66L115.67 79.67L115.66 79.68L115.65 79.7L115.64 79.71L115.64 79.72L85.24 137.71L85.2 137.78L85.17 137.85L85.13 137.92L85.09 137.98L85.04 138.05L85 138.11L84.95 138.17L84.91 138.23L84.86 138.28L84.81 138.34L84.75 138.39L84.7 138.44L84.64 138.49L84.59 138.54L84.53 138.59L84.47 138.63L84.41 138.67L84.35 138.71L84.29 138.74L84.23 138.78L84.16 138.81L84.1 138.84L84.03 138.87L83.97 138.89L83.9 138.91L83.83 138.93L83.76 138.95L83.7 138.97L83.63 138.98L83.56 138.99L83.49 139L83.42 139L83.35 139L83.28 139L83.22 139L83.15 138.99L83.08 138.98L83.01 138.97L82.94 138.95L82.87 138.93L82.81 138.91L82.74 138.89L82.68 138.86L82.61 138.83L82.55 138.8L82.48 138.77L82.42 138.74L82.36 138.71L82.3 138.67L82.24 138.63L82.19 138.59L82.13 138.55L82.08 138.5L82.02 138.46L81.97 138.41L81.92 138.36L81.87 138.31L81.82 138.26L81.77 138.21L81.72 138.15L81.67 138.09L81.63 138.04L81.59 137.98L81.54 137.91L81.5 137.85L81.47 137.79L81.43 137.72L81.39 137.66L81.36 137.59L81.32 137.52L81.29 137.45L81.26 137.38L81.23 137.3L81.2 137.23L81.18 137.15L81.15 137.08L81.13 137L81.11 136.92L81.09 136.84L81.07 136.76L79.27 123.31L74.09 154.41L74.08 154.47L74.07 154.54L74.06 154.6L74.05 154.66L74.03 154.72L74.01 154.78L73.99 154.84L73.97 154.9L73.95 154.96L73.93 155.02L73.9 155.07L73.88 155.13L73.85 155.19L73.82 155.25L73.79 155.3L73.76 155.36L73.73 155.41L73.7 155.46L73.66 155.52L73.63 155.57L73.59 155.62L73.55 155.67L73.52 155.72L73.48 155.76L73.44 155.81L73.4 155.85L73.35 155.9L73.31 155.94L73.27 155.98L73.22 156.02L73.18 156.06L73.13 156.09L73.08 156.13L73.04 156.16L72.99 156.19L72.94 156.22L72.89 156.24L72.84 156.27L72.79 156.29L72.74 156.32L58.44 163.92L58.38 163.96L58.31 163.99L58.24 164.03L58.17 164.06L58.1 164.08L58.03 164.1L57.95 164.12L57.88 164.14L57.81 164.15L57.74 164.16L57.67 164.16L57.59 164.17L57.52 164.17L57.45 164.16L57.38 164.16L57.31 164.15L57.23 164.14L57.16 164.13L57.09 164.11L57.02 164.09L56.95 164.07L56.88 164.04L56.82 164.02L56.75 163.99L56.68 163.96L56.62 163.92L56.55 163.89L56.49 163.85L56.43 163.81L56.37 163.77L56.31 163.72L56.25 163.68L56.2 163.63L56.14 163.58L56.09 163.53L56.04 163.47L55.99 163.42L55.94 163.36L55.9 163.3L55.85 163.24L29.62 126.03L29.6 125.99L29.57 125.95L29.55 125.9L29.53 125.86L29.5 125.82L29.48 125.78L29.46 125.73L29.43 125.69L29.41 125.64L29.39 125.6L29.37 125.55L29.35 125.5L29.33 125.46L29.31 125.41L29.3 125.36L29.28 125.31L29.26 125.26L29.25 125.21L29.23 125.16L29.22 125.11L29.2 125.06L29.19 125.01L29.17 124.96L29.16 124.9L29.15 124.85L29.14 124.8L29.13 124.74L29.12 124.69L29.11 124.63L29.1 124.58L29.09 124.52L29.09 124.46L29.08 124.41L29.08 124.35L29.07 124.29L29.07 124.23L29.06 124.17L29.06 124.11L29.06 124.05L29.06 123.99L35.25 47.26L4.74 131.6L47.64 208.19L47.64 208.21L47.65 208.22L47.66 208.23L47.67 208.24L47.67 208.25L47.68 208.26L47.69 208.27L47.69 208.28L47.7 208.29L47.7 208.3L47.71 208.31L47.71 208.32L47.72 208.33L47.72 208.34L47.73 208.35L47.73 208.36L47.74 208.37L47.76 208.42L47.76 208.43L47.77 208.44L47.77 208.45L47.77 208.46L47.78 208.47L47.78 208.48L47.79 208.49L47.79 208.5L47.8 208.51L47.81 208.52L47.81 208.53L47.82 208.54L47.82 208.55L47.83 208.56L47.84 208.57L47.85 208.58L47.85 208.59L47.86 208.6L81.07 303.94L153.69 362.88L243.3 410.83L243.34 410.85L243.37 410.87L243.4 410.89L243.43 410.91L243.47 410.93L243.5 410.96L243.53 410.98L243.56 411L243.59 411.03L243.62 411.05L243.65 411.08L243.68 411.11L243.71 411.13L243.73 411.16L243.76 411.19L243.79 411.22L243.82 411.25L243.84 411.27L243.87 411.3L243.89 411.33L243.92 411.37L243.94 411.4L243.97 411.43L243.99 411.46L244.01 411.49L244.04 411.53L244.06 411.56L244.08 411.6L244.1 411.63L244.13 411.67L244.15 411.7L244.17 411.74L244.19 411.77L244.21 411.81L244.23 411.85L244.24 411.89L244.26 411.93L244.28 411.97L244.3 412.01L244.32 412.05L252.42 430.25L252.45 430.31L252.47 430.37L252.49 430.43L252.51 430.49L252.53 430.56L252.55 430.62L252.57 430.68L252.58 430.75L252.6 430.81L252.61 430.88L252.62 430.94L252.63 431.01L252.64 431.07L252.65 431.14L252.66 431.21L252.66 431.27L252.67 431.34L252.67 431.4L252.67 431.47L252.67 431.54L252.67 431.6L252.67 431.67L252.67 431.73L252.66 431.8L252.66 431.87L252.65 431.93L252.64 432L252.63 432.06L252.62 432.13L252.61 432.19L252.6 432.26L252.58 432.32L252.57 432.39L252.55 432.45L252.53 432.52L252.51 432.58L252.49 432.64L252.47 432.7L252.45 432.77L252.42 432.83L252.4 432.89L252.37 432.95L252.34 433.01L252.31 433.06L252.28 433.12L252.25 433.17L252.21 433.23L252.18 433.28L252.14 433.33L252.11 433.38L252.07 433.43L252.03 433.48L251.99 433.53L251.95 433.57L251.91 433.61L251.87 433.66L251.83 433.7L251.78 433.74L251.74 433.77L251.69 433.81L251.64 433.85L251.6 433.88L251.55 433.91L251.5 433.94L251.45 433.97L251.4 434L251.35 434.02L251.29 434.05L251.24 434.07L251.19 434.09L251.13 434.11L251.08 434.12L251.02 434.14L250.97 434.15L250.91 434.16L250.85 434.17L250.8 434.18L250.74 434.18L250.68 434.18L250.62 434.18L248.59 434.32L248.54 434.32L248.49 434.32L248.44 434.32L248.39 434.31L248.35 434.31L248.3 434.3L248.25 434.3L248.2 434.29L248.15 434.28L248.11 434.27L248.06 434.26L248.02 434.25L247.97 434.24L247.93 434.23L247.88 434.21L247.84 434.2L247.79 434.18L247.75 434.17L247.71 434.15L247.66 434.13L247.62 434.12L247.58 434.1L247.54 434.08L247.5 434.06L247.46 434.04L247.42 434.01L247.38 433.99L247.34 433.97L247.3 433.94L247.26 433.92L247.23 433.89L247.19 433.87L247.15 433.84L247.12 433.82L247.08 433.79L247.04 433.76L247.01 433.73L246.97 433.7L246.94 433.67L246.9 433.64L234.41 419.38L215.27 417.62L215.24 417.62L215.22 417.61L215.19 417.61L215.17 417.61L215.14 417.61L215.12 417.61L215.09 417.6L215.07 417.6L215.04 417.6L215.02 417.59L214.99 417.58L214.97 417.58L214.94 417.57L214.91 417.57L214.89 417.56L214.86 417.55L214.84 417.54L214.81 417.53L214.79 417.52L214.76 417.51L214.74 417.5L214.71 417.49L214.69 417.48L214.66 417.47L214.64 417.46L214.61 417.44L214.59 417.43L214.56 417.42L214.54 417.4L214.51 417.39L214.48 417.37L214.46 417.35L214.43 417.34L214.41 417.32L214.38 417.3L214.36 417.29L214.33 417.27L214.31 417.25L214.28 417.23L214.26 417.21L180.48 392.9L175.3 393.71L196.13 432.28L202.55 432.28L202.61 432.28L202.67 432.29L202.72 432.29L202.78 432.3L202.84 432.3L202.89 432.31L202.95 432.32L203.01 432.33L203.06 432.35L203.12 432.36L203.17 432.38L203.22 432.39L203.28 432.41L203.33 432.43L203.38 432.46L203.43 432.48L203.48 432.5L203.53 432.53L203.58 432.56L203.63 432.59L203.68 432.62L203.73 432.65L203.77 432.69L203.82 432.72L203.87 432.76L203.91 432.8L203.96 432.84L204 432.88L204.04 432.93L204.08 432.97L204.12 433.02L204.17 433.07L204.21 433.12L204.24 433.17L204.28 433.22L204.32 433.27L204.36 433.33L204.39 433.39L204.43 433.45L204.46 433.51L204.49 433.57L204.53 433.63L204.56 433.69L204.58 433.75L204.61 433.82L204.63 433.88L204.66 433.94L204.68 434.01L204.7 434.07L204.72 434.14L204.73 434.2L204.75 434.27L204.76 434.33L204.77 434.4L204.78 434.47L204.79 434.53L204.8 434.6L204.81 434.66L204.81 434.73L204.81 434.8L204.82 434.86L204.81 434.93L204.81 434.99L204.81 435.06L204.81 435.13L204.8 435.19L204.79 435.26L204.78 435.32L204.77 435.39L204.76 435.45L204.75 435.52L204.74 435.58L204.72 435.65L204.7 435.71L204.68 435.77L204.67 435.84L204.64 435.9L204.62 435.96L204.6 436.02L204.57 436.09L202.1 442.74L226.42 471.8L251.41 479.27L251.44 479.28L251.48 479.3L251.51 479.31L251.54 479.32L251.58 479.33L251.61 479.34L251.64 479.36L251.68 479.37L251.71 479.39L251.74 479.4L251.78 479.42L251.81 479.44L251.84 479.45L251.88 479.47L251.91 479.49L251.94 479.51L251.97 479.53L252.01 479.55L252.04 479.57L252.07 479.6L252.1 479.62L252.13 479.64L252.16 479.67L252.19 479.69L252.23 479.72L252.26 479.75L252.29 479.78L252.32 479.81L252.34 479.84L252.37 479.87L252.4 479.9L252.43 479.93L252.46 479.96L252.49 480L252.51 480.03L252.54 480.07L252.57 480.11L252.6 480.15L252.62 480.18L252.65 480.22L259.29 490.14L259.31 490.18L259.34 490.22L259.36 490.26L259.38 490.3L259.41 490.34L259.43 490.38L259.45 490.42L259.47 490.47L259.48 490.51L259.5 490.55L259.52 490.59L259.54 490.63L259.55 490.67L259.57 490.72L259.58 490.76L259.59 490.8L259.61 490.84L259.62 490.88L259.63 490.93L259.64 490.97L259.65 491.01L259.66 491.06L259.67 491.1L259.68 491.15L259.69 491.19L259.69 491.24L259.7 491.28L259.71 491.33L259.71 491.37L259.72 491.42L259.72 491.47L259.72 491.51L259.73 491.56L259.73 491.61L259.73 491.66L259.74 491.7L259.74 491.75L259.74 491.8L259.74 491.85L259.74 491.9L259.74 512.28L263 520.42L263.02 520.47L263.03 520.49L263.04 520.51L263.05 520.53L263.05 520.55L263.06 520.57L263.07 520.59L263.08 520.61L263.09 520.63L263.09 520.65L263.1 520.67L263.11 520.69L263.12 520.71L263.12 520.73L263.13 520.75L263.14 520.77L263.15 520.79L263.15 520.81L263.16 520.83L263.17 520.85L263.17 520.87L263.18 520.89L263.18 520.91L263.19 520.93L263.19 520.95L263.2 520.97L263.2 521L263.21 521.02L263.21 521.04L263.21 521.06L263.22 521.08L263.22 521.1L263.22 521.12L263.22 521.14L263.23 521.16L263.23 521.18L263.23 521.2L263.23 521.22L263.23 521.24L264.81 535.77L264.81 535.91L267.28 580.59L275.5 595.66L275.61 595.8L282.71 611.69L283.04 611.28L283.08 611.24L283.11 611.2L283.15 611.16L283.19 611.13L283.23 611.09L283.27 611.06L283.31 611.02L283.35 610.99L283.39 610.96L283.44 610.93L283.48 610.9L283.53 610.87L283.57 610.84L283.62 610.81L283.67 610.79L283.72 610.76L283.77 610.74L283.82 610.71L283.87 610.69L283.92 610.67L283.97 610.65L284.02 610.63L284.07 610.61L284.12 610.6L284.17 610.58L284.23 610.57L284.28 610.55L284.33 610.54L284.38 610.53L284.44 610.52L284.49 610.51L284.54 610.5L284.59 610.49L284.65 610.49L284.7 610.48L284.75 610.48L284.8 610.47L284.86 610.47L284.91 610.47L284.96 610.47L285.01 610.48L285.06 610.49L285.11 610.5L285.16 610.52L285.21 610.53L285.26 610.55L285.31 610.56L285.36 610.58L285.41 610.6L285.46 610.62L285.51 610.64L285.56 610.67L285.6 610.69L285.65 610.72L285.7 610.74L285.75 610.77L285.79 610.8L285.84 610.83L285.88 610.86L285.93 610.89L285.97 610.93L286.02 610.96L286.06 611L286.1 611.03L286.14 611.07L286.18 611.11L286.22 611.16L286.26 611.2L286.3 611.24L286.33 611.29L286.37 611.34L286.41 611.38L286.44 611.43L286.47 611.49L286.5 611.54L286.54 611.59L286.56 611.65L286.59 611.71L286.62 611.77L286.65 611.83L292.05 622.96L301.84 630.57L334.27 630.57L344.06 622.83L349.47 611.69L349.49 611.64L349.52 611.59L349.55 611.54L349.58 611.49L349.61 611.44L349.64 611.39L349.67 611.35L349.71 611.3L349.74 611.26L349.78 611.21L349.81 611.17L349.85 611.12L349.89 611.08L349.93 611.04L349.97 611L350.01 610.96L350.05 610.92L350.1 610.88L350.14 610.84L350.18 610.81L350.23 610.77L350.27 610.74L350.32 610.7L350.37 610.67L350.41 610.64L350.46 610.61L350.51 610.58L350.56 610.56L350.6 610.53L350.65 610.51L350.7 610.48L350.75 610.46L350.8 610.44L350.85 610.42L350.9 610.4L350.95 610.38L351 610.37L351.05 610.36L351.1 610.34L351.16 610.33L351.21 610.32L351.26 610.31L351.31 610.31L351.36 610.3L351.41 610.3L351.46 610.3L351.51 610.3L351.56 610.3L351.61 610.3L351.66 610.31L351.71 610.31L351.76 610.32L351.81 610.33L351.86 610.34L351.91 610.35L351.96 610.36L352.01 610.38L352.06 610.4L352.11 610.41L352.15 610.43L352.2 610.45L352.25 610.48L352.3 610.5L352.35 610.53L352.39 610.55L352.44 610.58L352.49 610.61L352.54 610.65L352.58 610.68L352.63 610.71L352.67 610.75L352.72 610.79L352.76 610.83L352.81 610.87L352.85 610.91L352.9 610.96L352.94 611L352.98 611.05L353.03 611.1L353.07 611.15L353.41 611.55L360.5 595.66L360.5 595.65L360.5 595.64L360.5 595.64L360.5 595.63L360.5 595.62L360.51 595.61L360.51 595.6L360.51 595.6L360.51 595.59L360.52 595.59L360.52 595.58L360.52 595.57L360.53 595.57L360.53 595.57L360.54 595.56L360.54 595.56L360.54 595.55L360.55 595.55L360.55 595.55L360.56 595.55L360.56 595.54L360.56 595.54L360.57 595.54L360.58 595.53L360.58 595.53L360.59 595.53L360.59 595.53L360.6 595.53L360.61 595.53L368.83 580.45L371.31 535.77L371.31 535.64L372.88 521.24L372.88 521.22L372.88 521.2L372.89 521.18L372.89 521.16L372.89 521.14L372.89 521.12L372.89 521.1L372.9 521.08L372.9 521.06L372.9 521.04L372.91 521.02L372.91 521L372.92 520.97L372.92 520.95L372.92 520.93L372.93 520.91L372.94 520.89L372.94 520.87L372.95 520.85L372.95 520.83L372.96 520.81L372.97 520.79L372.97 520.77L372.98 520.75L372.99 520.73L373 520.71L373 520.69L373.01 520.67L373.02 520.65L373.03 520.63L373.03 520.61L373.04 520.59L373.05 520.57L373.06 520.55L373.07 520.53L373.07 520.51L373.08 520.49L373.11 520.42L376.37 512.28L376.37 491.9L376.37 491.85L376.38 491.8L376.38 491.75L376.38 491.7L376.38 491.66L376.39 491.61L376.39 491.56L376.4 491.51L376.41 491.47L376.41 491.42L376.42 491.37L376.43 491.33L376.44 491.28L376.45 491.24L376.46 491.19L376.47 491.15L376.48 491.1L376.49 491.06L376.5 491.01L376.51 490.97L376.53 490.93L376.54 490.88L376.55 490.84L376.57 490.8L376.58 490.76L376.6 490.72L376.61 490.67L376.63 490.63L376.64 490.59L376.66 490.55L376.67 490.51L376.69 490.47L376.71 490.42L376.72 490.38L376.74 490.34L376.76 490.3L376.77 490.26L376.79 490.22L376.81 490.18L376.82 490.14L383.47 480.22L383.49 480.19L383.52 480.16L383.54 480.13L383.57 480.1L383.6 480.07L383.63 480.04L383.65 480.01L383.68 479.98L383.71 479.95L383.74 479.92L383.77 479.89L383.8 479.87L383.83 479.84L383.86 479.81L383.89 479.78L383.92 479.75L383.95 479.73L383.98 479.7L384.01 479.67L384.04 479.65L384.07 479.62L384.11 479.6L384.14 479.57L384.17 479.55L384.2 479.53L384.24 479.5L384.27 479.48L384.3 479.46L384.34 479.44L384.37 479.42L384.4 479.4L384.44 479.39L384.47 479.37L384.5 479.35L384.54 479.34L384.57 479.32L384.6 479.31L384.64 479.3L384.67 479.28L384.7 479.27L409.7 471.8L435.03 441.65L439.31 433.51L460.81 393.58L455.63 392.76L421.86 417.07L421.83 417.09L421.81 417.11L421.78 417.13L421.75 417.15L421.73 417.17L421.7 417.19L421.68 417.2L421.65 417.22L421.63 417.24L421.6 417.25L421.58 417.27L421.55 417.28L421.53 417.29L421.5 417.31L421.48 417.32L421.45 417.33L421.43 417.35L421.4 417.36L421.37 417.37L421.35 417.38L421.32 417.39L421.3 417.4L421.27 417.41L421.25 417.41L421.22 417.42L421.2 417.43L421.17 417.44L421.15 417.44L421.12 417.45L421.1 417.45L421.07 417.46L421.05 417.46L421.02 417.47L420.99 417.47L420.97 417.47L420.94 417.48L420.92 417.48L420.89 417.48L420.87 417.48L420.84 417.48L401.7 419.25L388.98 433.51L388.95 433.55L388.91 433.59L388.88 433.62L388.84 433.66L388.81 433.7L388.77 433.73L388.74 433.77L388.7 433.8L388.66 433.83L388.62 433.86L388.59 433.89L388.55 433.92L388.51 433.94L388.47 433.97L388.43 433.99L388.39 434.02L388.35 434.04L388.31 434.06L388.26 434.08L388.22 434.1L388.18 434.12L388.14 434.13L388.09 434.15L388.05 434.16L388.01 434.17L387.96 434.18L387.92 434.19L387.87 434.2L387.83 434.21L387.78 434.21L387.73 434.22L387.69 434.22L387.64 434.22L387.59 434.22L387.54 434.22L387.49 434.21L387.44 434.21L387.39 434.2L387.34 434.19L387.29 434.18L385.27 434.05L385.21 434.05L385.15 434.04L385.09 434.04L385.03 434.03L384.98 434.02L384.92 434.01L384.87 434L384.81 433.99L384.76 433.97L384.7 433.95L384.65 433.93L384.59 433.91L384.54 433.89L384.49 433.86L384.44 433.83L384.39 433.81L384.34 433.78L384.29 433.74L384.24 433.71L384.2 433.68L384.15 433.64L384.11 433.6L384.06 433.56L384.02 433.52L383.98 433.48L383.94 433.43L383.89 433.39L383.86 433.34L383.82 433.3L383.78 433.25L383.74 433.2L383.71 433.14L383.67 433.09L383.64 433.04L383.61 432.98L383.58 432.93L383.55 432.87L383.52 432.81L383.49 432.75L383.47 432.69L383.44 432.63L383.42 432.57L383.4 432.51L383.37 432.44L383.36 432.38L383.34 432.32L383.32 432.25L383.3 432.19L383.29 432.12L383.28 432.06L383.26 431.99L383.25 431.93L383.24 431.86L383.24 431.8L383.23 431.73L383.22 431.67L383.22 431.6L383.22 431.53L383.21 431.47L383.21 431.4L383.21 431.33L383.22 431.27L383.22 431.2L383.22 431.14L383.23 431.07L383.24 431L383.24 430.94L383.25 430.87L383.26 430.81L383.28 430.74L383.29 430.68L383.3 430.61L383.32 430.55L383.34 430.49L383.36 430.42L383.37 430.36L383.4 430.3L383.42 430.23L383.44 430.17L383.47 430.11L391.57 411.91L391.59 411.87L391.61 411.83L391.62 411.79L391.64 411.75L391.66 411.71L391.68 411.68L391.7 411.64L391.72 411.6L391.74 411.57L391.76 411.53L391.78 411.49L391.8 411.46L391.83 411.42L391.85 411.39L391.87 411.36L391.9 411.32L391.92 411.29L391.94 411.26L391.97 411.23L391.99 411.2L392.02 411.17L392.05 411.14L392.07 411.11L392.1 411.08L392.13 411.05L392.15 411.02L392.18 411L392.21 410.97L392.24 410.94L392.27 410.92L392.3 410.89L392.33 410.87L392.36 410.84L392.39 410.82L392.42 410.8L392.45 410.77L392.49 410.75L392.52 410.73L392.55 410.71L392.59 410.69L463.29 372.93L463.33 372.91L463.37 372.9L463.41 372.88L463.45 372.86L463.5 372.84L463.54 372.83L463.58 372.82L463.62 372.8L463.67 372.79L463.71 372.78L463.75 372.77L463.79 372.76L463.83 372.75L463.88 372.74L463.92 372.74L463.96 372.73L464 372.72L464.05 372.72L464.09 372.72L464.13 372.71L464.17 372.71L464.21 372.71L464.26 372.71L464.3 372.71L464.34 372.71L464.38 372.71L464.43 372.71L464.47 372.72L464.51 372.72L464.55 372.72L464.59 372.73L464.64 372.73L464.68 372.74L464.72 372.75L464.76 372.75L464.81 372.76L464.85 372.77L464.89 372.78L464.93 372.79L464.97 372.8L469.25 374.56L486.48 371.98L479.5 369.4L479.43 369.38L479.36 369.36L479.3 369.33L479.23 369.3L479.17 369.26L479.11 369.23L479.05 369.19L478.99 369.15L478.93 369.1L478.87 369.06L478.82 369.01L478.76 368.96L478.71 368.91L478.65 368.85L478.6 368.8L478.55 368.74L478.51 368.68L478.46 368.62L478.42 368.55L478.37 368.49L478.33 368.42L478.29 368.35L478.25 368.28L478.22 368.21L478.18 368.14L478.15 368.06L478.12 367.99L478.09 367.91L478.07 367.84L478.04 367.76L478.02 367.68L478 367.6L477.98 367.52L477.97 367.44L477.95 367.36L477.94 367.28L477.93 367.2L477.93 367.12L477.92 367.04L477.92 366.96L477.92 366.88L477.93 366.8L477.93 366.71L477.94 366.63L477.94 366.55L477.95 366.47L477.96 366.39L477.98 366.31L477.99 366.23L478.01 366.15L478.02 366.07L478.04 365.99L478.06 365.92L478.09 365.84L478.11 365.76L478.14 365.69L478.17 365.61L478.2 365.54L478.23 365.47L478.26 365.4L478.29 365.33L478.33 365.26L478.37 365.19L478.41 365.12L478.45 365.05L478.49 364.99L478.54 364.93L478.58 364.86L478.63 364.8L478.68 364.74L478.73 364.68L478.79 364.63L478.84 364.57L478.9 364.52L478.96 364.47L479.02 364.42L479.08 364.37L479.14 364.33L479.21 364.28L479.27 364.24L482.31 362.61L554.93 303.67L588.14 208.33L588.15 208.32L588.15 208.31L588.16 208.3L588.17 208.29L588.18 208.28L588.18 208.27L588.19 208.26L588.19 208.25L588.2 208.24L588.21 208.23L588.21 208.22L588.22 208.21L588.22 208.2L588.23 208.19L588.23 208.18L588.23 208.17L588.24 208.16L588.26 208.11L588.26 208.1L588.27 208.09L588.27 208.08L588.28 208.07L588.28 208.06L588.29 208.05L588.29 208.04L588.3 208.03L588.3 208.01L588.31 208L588.31 207.99L588.32 207.98L588.33 207.97L588.33 207.96L588.34 207.95L588.35 207.94L588.36 207.93L588.36 207.92L631.26 131.46L590.17 25.12L606.94 123.58L606.95 123.65Z" id="a39DLYqeUu">
<animate attributeName="fill" values="grey;#fff;grey" dur="25s" repeatCount="indefinite" />
</path
><path d="M237.9 445.05L226.98 431.88L207.5 423.73L179.47 391.95L182.62 388.01L209.87 418.97L229.45 427.12L240.26 440.16L251.52 443.69L247.58 428.62L287.55 430.38L317.38 418.7L318.73 423.86L288.22 435.81L253.77 434.32L258.16 451.43L237.9 445.05Z" id="e56258cnX"></path><path d="M382.34 434.32L347.89 435.81L317.38 423.86L318.73 418.7L348.57 430.38L388.53 428.62L384.59 443.69L395.85 440.16L406.66 427.12L426.25 418.97L453.6 388.01L456.64 391.95L428.61 423.73L409.13 431.88L398.21 445.05L377.95 451.43L382.34 434.32Z" id="d1X5qgRdby"></path><path d="M316.37 635.19C315.56 634.14 311.55 628.94 304.32 619.57L295.99 609.52L285.52 615.49L283.61 610.6C290.7 606.45 294.64 604.14 295.43 603.68C296.33 603.13 297.34 603.41 298.02 604.22C298.65 604.98 301.8 608.78 307.47 615.63L317.94 629.21L328.3 615.76C334.04 608.84 337.23 604.99 337.87 604.22C338.55 603.41 339.56 603.13 340.46 603.68C341.25 604.14 345.19 606.45 352.28 610.6L350.37 615.49L339.9 609.52L331.57 619.57C324.41 628.94 320.43 634.14 319.63 635.19C319.29 635.73 318.73 636 318.06 636C317.38 636 316.82 635.73 316.37 635.19Z" id="k17pVptTxL"></path><path d="M320.98 597.29L319.07 598.52L317.04 593.63L323.35 589.69L332.13 616.71L327.96 618.75L320.98 597.29Z" id="b5DjTE5R6m"></path><path d="M303.98 616.71L312.76 589.69L319.07 593.63L317.04 598.52L315.13 597.29L308.15 618.75L303.98 616.71Z" id="c1D4RL2xL"></path><path d="M343.61 584.8C343.16 583.98 343.16 582.9 343.61 581.95C345.65 577.66 355.86 556.2 374.23 517.57L378.17 520.29L349.69 580.32L370.97 578.69L371.19 584.12C355.93 585.26 347.45 585.89 345.75 586.02C345.64 586.02 345.64 586.02 345.53 586.02C344.74 586.02 344.06 585.48 343.61 584.8Z" id="aaE0WWvRy"></path><path d="M290.47 586.02C288.78 585.89 280.3 585.26 265.03 584.12L265.26 578.69L286.53 580.32L259.06 522.87L263 520.15C280.77 557.23 290.64 577.83 292.61 581.95C293.06 582.76 293.06 583.85 292.61 584.8C292.05 585.61 291.37 586.02 290.59 586.02C290.56 586.02 290.5 586.02 290.47 586.02Z" id="d1cfxudheO"></path><path d="M316.93 598.38C316.03 597.77 308.82 592.88 307.92 592.27C307.47 592 307.02 591.32 306.91 590.77C306.29 588.4 301.34 569.38 300.72 567.01C300.38 565.51 301.06 564.02 302.18 563.61C303.42 563.21 304.66 564.02 305 565.38C305.39 566.9 307.38 574.5 310.96 588.19L318.06 592.95L325.71 588.06L331 565.51C336.41 508.64 339.41 477.04 340.01 470.72C340.12 469.77 340.57 468.95 341.25 468.54C345.14 466.2 376.31 447.4 380.2 445.05C381.33 444.37 382.68 444.91 383.24 446.27C383.8 447.63 383.35 449.26 382.23 449.94C379.7 451.46 367.05 459.07 344.29 472.75C338.95 528.9 335.99 560.09 335.39 566.33C335.39 566.46 335.39 566.6 335.28 566.74C334.72 569.11 330.22 588.13 329.65 590.5C329.54 591.18 329.09 591.86 328.53 592.13C327.57 592.74 319.91 597.63 318.96 598.24C318.73 598.65 318.39 598.79 318.06 598.79C317.72 598.79 317.27 598.65 316.93 598.38Z" id="a6134V2lEm"></path><path d="M316.93 598.38C316.03 597.77 308.82 592.88 307.92 592.27C307.47 592 307.02 591.32 306.91 590.77C306.29 588.4 301.34 569.38 300.72 567.01C300.38 565.51 301.06 564.02 302.18 563.61C303.42 563.21 304.66 564.02 305 565.38C305.39 566.9 307.38 574.5 310.96 588.19L318.06 592.95L325.71 588.06C328.89 574.45 330.65 566.89 331 565.38C331.34 563.88 332.58 563.07 333.82 563.48C335.06 563.88 335.73 565.38 335.39 566.87C334.83 569.25 330.33 588.26 329.76 590.64C329.65 591.32 329.2 592 328.64 592.27C327.68 592.88 320.03 597.77 319.07 598.38C318.73 598.65 318.39 598.79 318.06 598.79C317.72 598.79 317.27 598.65 316.93 598.38Z" id="dvy5Ur9WJ"></path><path d="M399.23 461.35C397.32 460.22 382.1 451.2 380.2 450.07C379.08 449.4 378.63 447.77 379.19 446.41C379.75 445.05 381.1 444.51 382.23 445.19C383.44 445.91 389.48 449.53 400.35 456.05C421.7 447.01 433.56 441.98 435.93 440.98C437.05 440.43 438.41 441.25 438.86 442.6C439.31 443.96 438.63 445.59 437.5 446.14C433.86 447.67 404.68 459.95 401.03 461.48C400.8 461.62 400.47 461.62 400.24 461.62C399.9 461.62 399.57 461.48 399.23 461.35Z" id="aMBxmtbtn"></path><path d="M383.58 483.76C382.49 482.19 373.75 469.7 372.66 468.14C372.1 467.32 371.98 466.24 372.32 465.29C373.01 463.41 378.5 448.42 379.19 446.54C379.75 445.19 380.99 444.51 382.12 445.19C383.24 445.73 383.8 447.36 383.24 448.72C382.82 449.86 380.72 455.56 376.94 465.83C382.95 474.38 386.29 479.14 386.96 480.09C387.74 481.18 387.63 482.94 386.73 483.89C386.28 484.43 385.72 484.71 385.27 484.71C384.59 484.71 384.03 484.43 383.58 483.76Z" id="e4jEtMQNlH"></path><path d="M248.71 484.03C247.81 483.08 247.58 481.31 248.48 480.22C249.15 479.27 252.49 474.52 258.5 465.96C254.72 455.7 252.62 449.99 252.2 448.85C251.75 447.49 252.2 445.86 253.32 445.32C254.45 444.64 255.8 445.32 256.25 446.68C256.94 448.55 262.43 463.55 263.12 465.42C263.45 466.37 263.34 467.46 262.78 468.27C261.69 469.84 252.95 482.33 251.86 483.89C251.41 484.3 250.73 484.71 250.17 484.71C249.61 484.71 249.16 484.43 248.71 484.03Z" id="bLYUX4vl"></path><path d="M333.03 568.91C331.79 568.77 330.89 567.42 331 565.92C331.9 556.41 339.11 480.36 340.01 470.85C340.12 469.9 340.57 469.09 341.25 468.68C345.14 466.33 376.31 447.53 380.2 445.19C381.33 444.51 382.68 445.05 383.24 446.41C383.8 447.77 383.35 449.4 382.23 450.07C379.7 451.6 367.05 459.2 344.29 472.89C338.95 529.04 335.99 560.23 335.39 566.46C335.39 567.96 334.38 568.91 333.25 568.91C333.14 568.91 333.07 568.91 333.03 568.91Z" id="a1xTnPwVCs"></path><path d="M300.61 566.46C300.01 560.23 297.05 529.04 291.71 472.89C268.95 459.2 256.3 451.6 253.77 450.07C252.65 449.4 252.2 447.77 252.76 446.41C253.32 445.05 254.67 444.51 255.8 445.19C259.69 447.53 290.86 466.33 294.75 468.68C295.43 469.09 295.88 469.9 295.99 470.85C296.89 480.36 304.1 556.41 305 565.92C305.11 567.42 304.21 568.77 302.97 568.91C303.08 568.91 302.97 568.91 302.86 568.91C301.73 568.91 300.72 567.82 300.61 566.46Z" id="a87QRbunFg"></path><path d="M361.63 501.28C360.23 499.39 353.25 489.98 340.69 473.03L316.93 449.94C298.96 441.38 288.98 436.63 286.98 435.68C285.86 435.14 285.3 433.51 285.75 432.15C286.2 430.79 287.55 430.11 288.67 430.65C291.69 432.11 315.83 443.73 318.84 445.19C319.07 445.32 319.29 445.46 319.41 445.59C321.83 447.94 341.19 466.74 343.61 469.09C343.72 469.22 343.84 469.22 343.84 469.36C345.94 472.2 362.78 494.91 364.89 497.74C365.68 498.83 365.68 500.6 364.66 501.55C364.33 502.09 363.88 502.23 363.31 502.23C362.75 502.23 362.08 501.95 361.63 501.28Z" id="c2CMAQCd0"></path><path d="M271.45 501.55C270.55 500.6 270.43 498.83 271.22 497.74C273.29 494.91 289.87 472.2 291.94 469.36C292.05 469.22 292.16 469.09 292.16 469.09C294.58 466.74 313.95 447.94 316.37 445.59C316.59 445.46 316.71 445.32 316.93 445.19C319.95 443.73 344.09 432.11 347.1 430.65C348.23 430.11 349.58 430.79 350.03 432.15C350.48 433.51 349.92 435.14 348.79 435.68C346.8 436.64 336.86 441.44 318.96 450.07L295.2 473.16C282.84 490.11 275.97 499.53 274.6 501.41C274.15 501.95 273.47 502.23 272.91 502.23C272.35 502.23 271.9 501.95 271.45 501.55Z" id="a20Z9AZrqW"></path><path d="M332.02 568.5C331 567.69 330.67 566.06 331.34 564.7C333.32 560.97 343.23 542.32 361.06 508.74C361.06 503.2 361.06 500.13 361.06 499.51C361.06 498.42 361.63 497.47 362.41 497.07C363.94 496.29 376.19 490.1 377.72 489.32C378.85 488.78 380.2 489.46 380.65 490.82C381.1 492.18 380.54 493.81 379.41 494.35C378.48 494.81 373.83 497.12 365.45 501.28C365.45 506.25 365.45 509.01 365.45 509.56C365.45 510.1 365.34 510.65 365.12 511.05C362.11 516.72 338.06 562.02 335.06 567.69C334.72 568.5 333.93 568.91 333.25 568.91C332.8 568.91 332.47 568.77 332.02 568.5Z" id="eEcljvfJQ"></path><path d="M300.94 567.69C297.94 562.02 273.89 516.72 270.88 511.05C270.66 510.65 270.55 510.1 270.55 509.56C270.55 509.01 270.55 506.25 270.55 501.28C262.17 497.12 257.52 494.81 256.59 494.35C255.46 493.81 254.9 492.18 255.35 490.82C255.8 489.46 257.15 488.78 258.28 489.32C259.81 490.1 272.06 496.29 273.59 497.07C274.37 497.47 274.94 498.42 274.94 499.51C274.94 500.13 274.94 503.2 274.94 508.74C292.77 542.32 302.68 560.97 304.66 564.7C305.33 565.92 305 567.69 303.98 568.5C303.76 568.77 303.31 568.91 302.86 568.91C302.07 568.91 301.39 568.5 300.94 567.69Z" id="e36GoRM4I3"></path><path d="M235.08 461.48C231.44 459.93 202.26 447.55 198.61 446C197.48 445.46 196.81 443.96 197.26 442.47C197.71 441.11 198.95 440.3 200.18 440.84C202.56 441.84 214.41 446.87 235.76 455.91C246.63 449.4 252.68 445.77 253.88 445.05C255.01 444.37 256.36 444.91 256.92 446.27C257.49 447.63 257.04 449.26 255.91 449.94C254.01 451.07 238.79 460.08 236.89 461.21C236.55 461.48 236.21 461.62 235.87 461.62C235.65 461.62 235.42 461.62 235.08 461.48Z" id="d1Ma4pYZI"></path><path d="M373.45 468.82C372.32 468.27 371.76 466.64 372.32 465.29C373.01 463.41 378.5 448.42 379.19 446.54C379.64 445.19 380.99 444.51 382.12 445.19C383.24 445.73 383.8 447.36 383.24 448.72C382.55 450.59 377.06 465.58 376.37 467.46C376.04 468.41 375.25 469.09 374.35 469.09C374.01 469.09 373.78 468.95 373.45 468.82Z" id="biK8mWxyB"></path><path d="M386.62 434.18C384.03 432.99 371.08 427.01 347.78 416.26L349.35 411.23L380.99 425.9C370.65 408.87 364.91 399.41 363.76 397.52C363.43 396.84 363.2 396.16 363.43 395.34C363.54 394.66 363.88 393.98 364.44 393.58C367.07 391.63 388.15 376.1 390.78 374.16C391.12 373.88 391.57 373.75 391.91 373.75C396.61 373.69 420.1 373.42 462.39 372.93C468.6 349.14 472.05 335.92 472.74 333.28C473.08 332.05 473.98 331.38 474.99 331.38C476.01 331.51 476.91 332.33 477.02 333.55C477.52 336.85 481.48 363.25 481.97 366.55C482.09 367.5 481.75 368.59 481.19 369.13C480.44 369.83 476.73 373.31 470.04 379.59L467.23 375.24L477.25 365.74L474.09 345.09C469.16 363.75 466.42 374.12 465.88 376.19C465.54 377.28 464.75 378.09 463.74 378.09C458.97 378.15 435.14 378.42 392.25 378.91L368.49 396.43C380.65 416.47 387.41 427.61 388.76 429.84C389.32 430.79 389.32 432.15 388.76 433.1C388.76 433.91 388.08 434.32 387.41 434.32C387.18 434.32 386.84 434.32 386.62 434.18Z" id="f1IxPozJQo"></path><path d="M395.87 413.12C395.87 413.12 395.87 413.12 395.87 413.12C393.17 413.28 391.67 413.36 391.37 413.38C391.37 413.38 391.37 413.38 391.37 413.38C390.52 391.15 390.04 378.81 389.95 376.34C389.95 376.34 389.95 376.34 389.95 376.34C392.65 376.19 394.14 376.11 394.44 376.09C394.44 376.09 394.44 376.09 394.44 376.09C395.3 398.31 395.77 410.65 395.87 413.12Z" id="d4Dg35q8Ew"></path><path d="M474.54 331.38L552.79 304.35C541.24 286.99 534.82 277.35 533.54 275.42C532.75 274.33 532.86 272.71 533.76 271.75C537.12 267.83 553.94 248.23 584.2 212.95C565.62 214.82 555.3 215.86 553.24 216.07C552.56 216.21 551.89 215.8 551.44 215.26C550.99 214.58 550.76 213.76 550.87 212.95C551.81 206.69 559.28 156.6 560.22 150.34C560.33 149.93 560.44 149.52 560.67 149.12C561.31 148.1 564.54 143.03 570.35 133.91L562.81 130.51L564.38 125.49C570.6 128.34 574.05 129.92 574.74 130.24C575.42 130.51 575.87 131.19 576.09 132C576.32 132.82 576.09 133.77 575.75 134.45C575 135.63 571.25 141.51 564.5 152.1L555.72 210.5C576.32 208.39 587.76 207.21 590.05 206.97C590.95 206.84 591.85 207.52 592.3 208.6C592.64 209.69 592.53 210.91 591.85 211.73C588.29 215.88 570.46 236.66 538.38 274.06C550.47 292.15 557.19 302.2 558.53 304.21C558.98 304.89 559.21 305.84 558.98 306.79C558.75 307.61 558.19 308.29 557.4 308.56C551.96 310.42 524.76 319.75 475.78 336.54L474.54 331.38Z" id="a13I7DulN2"></path><path d="M546.26 165.69L558.08 151.97C534.1 142.35 520.78 137.01 518.11 135.94C517.33 135.67 516.76 134.86 516.65 133.77C516.54 132.82 516.87 131.73 517.55 131.19C518.03 130.75 520.43 128.53 524.76 124.54L520.7 80.94L507.42 79.58L507.76 74.15C516.87 75.05 521.94 75.54 522.95 75.64C524.08 75.78 524.87 76.73 524.98 78.09C525.42 82.81 528.93 120.62 529.37 125.35C529.48 126.3 529.15 127.25 528.47 127.79C528.15 128.09 526.53 129.59 523.63 132.28C547.34 141.81 560.51 147.11 563.15 148.17C563.93 148.44 564.5 149.25 564.61 150.2C564.83 151.15 564.5 152.1 563.93 152.78C562.97 153.91 558.12 159.52 549.41 169.62L546.26 165.69Z" id="aEBNczpQS"></path><path d="M576.77 161.88C576.43 160.53 576.99 159.17 578.01 158.62C581.24 156.89 597.42 148.25 626.53 132.68L604.24 126.84L605.14 121.55C622.57 126.11 632.25 128.65 634.18 129.15C635.09 129.42 635.87 130.38 635.99 131.6C636.1 132.82 635.54 133.91 634.63 134.31C631.11 136.21 613.47 145.67 581.72 162.7L592.42 208.87L588.03 210.37C581.27 181.28 577.52 165.12 576.77 161.88Z" id="d9biDaVgOs"></path><path d="M81.3 137.98C80.74 136.89 80.85 135.54 81.52 134.72C84.29 131.1 98.14 112.99 123.07 80.4L113.61 81.35L113.27 75.91C122.39 75.02 127.46 74.52 128.47 74.42C129.37 74.29 130.27 74.96 130.72 75.91C131.17 76.87 130.95 78.09 130.38 78.9C127.74 82.35 114.53 99.6 90.75 130.65C108.52 123.48 118.39 119.49 120.36 118.7C121.15 118.42 122.05 118.7 122.73 119.37C123.29 120.19 123.52 121.28 123.18 122.23C122.92 123.04 121.65 127.12 119.35 134.45L115.18 132.55L117.32 125.62C97.26 133.69 86.12 138.17 83.89 139.07C83.66 139.07 83.44 139.2 83.21 139.2C82.42 139.2 81.75 138.8 81.3 137.98Z" id="a13pqpuPTe"></path><path d="M83.49 133.84L83.63 133.87L83.77 133.91L83.93 133.96L84.08 134.02L84.22 134.1L84.35 134.18L84.48 134.28L84.6 134.38L84.72 134.5L84.82 134.62L84.92 134.75L85.01 134.89L85.1 135.04L85.18 135.2L85.25 135.36L85.31 135.53L85.37 135.71L85.42 135.89L85.46 136.08L90.53 167.32L90.56 167.51L90.58 167.7L90.59 167.89L90.58 168.08L90.56 168.26L90.53 168.45L90.49 168.63L90.43 168.81L90.37 168.98L90.29 169.15L90.21 169.31L90.12 169.47L90.01 169.63L89.9 169.77L89.78 169.91L89.65 170.04L89.52 170.17L89.44 170.19L89.36 170.22L89.29 170.24L89.21 170.26L89.14 170.28L89.07 170.31L89 170.33L88.93 170.35L88.86 170.36L88.79 170.38L88.72 170.39L88.65 170.41L88.58 170.42L88.51 170.43L88.43 170.43L88.36 170.44L88.28 170.44L88.2 170.44L88.12 170.43L88.04 170.43L87.96 170.42L87.88 170.4L87.81 170.38L87.73 170.36L87.65 170.33L87.58 170.31L87.51 170.27L87.43 170.23L87.36 170.19L87.3 170.14L87.23 170.09L87.16 170.03L87.1 169.97L87.04 169.9L70.6 156.18L70.51 156.1L70.41 156.02L70.33 155.94L70.24 155.85L70.17 155.76L70.1 155.66L70.03 155.56L69.97 155.45L69.91 155.34L69.87 155.23L69.82 155.12L69.79 155.01L69.76 154.89L69.73 154.77L69.72 154.65L69.71 154.53L69.7 154.41L69.69 154.29L69.68 154.17L69.67 154.04L69.68 153.92L69.68 153.79L69.7 153.66L69.72 153.53L69.74 153.41L69.77 153.28L69.81 153.16L69.85 153.04L69.89 152.92L69.94 152.8L69.99 152.69L70.04 152.58L70.09 152.48L70.15 152.38L81.52 134.86L81.63 134.72L81.74 134.59L81.85 134.47L81.97 134.35L82.1 134.25L82.23 134.16L82.36 134.08L82.5 134.01L82.63 133.95L82.78 133.9L82.92 133.86L83.06 133.84L83.21 133.82L83.35 133.82L83.49 133.84ZM85.01 161.61L81.97 142.73L75.11 153.33L85.01 161.61Z" id="g3jObxtVr0"></path><path d="M82.99 216.21C79.26 215.83 49.45 212.79 45.72 212.41C45.05 212.27 44.48 211.86 44.03 211.18C43.58 210.5 43.58 209.69 43.7 208.87C44.43 205.82 48.11 190.57 54.73 163.11C22.71 145.83 4.92 136.23 1.37 134.31C0.46 133.77 -0.1 132.68 0.01 131.6C0.13 130.38 0.8 129.42 1.82 129.29C3.75 128.78 13.43 126.25 30.86 121.68L31.76 126.98L9.36 132.82C38.74 148.63 55.07 157.41 58.33 159.17C59.34 159.71 59.91 161.07 59.57 162.43C58.85 165.41 55.25 180.35 48.76 207.24L80.28 210.5L69.59 154.69L73.98 153.46C80.8 189.15 84.59 208.98 85.35 212.95C85.46 213.76 85.35 214.71 84.9 215.39C84.45 215.8 83.89 216.21 83.21 216.21C83.1 216.21 83.1 216.21 82.99 216.21Z" id="aZMaSGVM"></path><path d="M150.87 366.69C147.53 360.78 130.83 331.27 100.77 278.14C89.02 295.66 82.49 305.39 81.19 307.34C80.62 308.29 79.5 308.56 78.6 308.15C77.7 307.74 77.13 306.66 77.13 305.44C77.39 299.28 78.66 268.5 80.96 213.08L85.46 213.36L81.97 297.29C92.24 281.97 97.94 273.46 99.09 271.75C99.54 271.08 100.21 270.67 100.89 270.8C101.56 270.8 102.24 271.21 102.69 272.03C105.97 277.82 122.37 306.79 151.89 358.95L158.19 335.04L146.48 327.03L148.73 322.28C156.7 327.74 161.13 330.77 162.02 331.38C162.92 332.05 163.37 333.28 163.03 334.5C162.21 337.62 155.64 362.61 154.81 365.74C154.59 366.69 153.8 367.5 153.01 367.64C152.9 367.91 152.79 367.91 152.79 367.91C152 367.91 151.32 367.5 150.87 366.69Z" id="jsSyxroo3"></path><path d="M242.29 415.99C241.39 415.85 240.71 415.17 240.38 414.22C239.44 411.23 234.79 396.29 226.42 369.4L152.67 367.91L152.79 362.48C197.91 363.37 222.98 363.87 227.99 363.97C228.89 363.97 229.68 364.65 230.02 365.74C230.87 368.48 235.15 382.2 242.85 406.89C247.85 396.21 250.63 390.28 251.18 389.1C251.63 388.01 252.76 387.47 253.66 387.74C254.51 388 258.75 389.31 266.38 391.68C256.45 362.67 250.94 346.55 249.83 343.33C249.38 341.97 249.94 340.34 251.07 339.8C251.87 339.39 255.89 337.35 263.12 333.68L264.92 338.71L255.01 343.73C265.48 374.29 271.3 391.27 272.46 394.66C272.8 395.61 272.69 396.7 272.12 397.52C271.56 398.33 270.66 398.6 269.87 398.33C268.84 398.01 263.7 396.43 254.45 393.58C248.5 406.21 245.2 413.22 244.54 414.63C244.09 415.44 243.3 415.99 242.51 415.99C242.4 415.99 242.4 415.99 242.29 415.99Z" id="eCpEKFh8O">

</path>
<path d="" id="i2qxU8Lgxi"></path></defs><g><g><g><use xlink:href="#i1FJjoVwED" opacity="1" fill="#808080" fill-opacity="1"></use><g><use xlink:href="#i1FJjoVwED" opacity="1" fill-opacity="0" stroke="#000000" stroke-width="1" stroke-opacity="0"></use></g></g><g><use xlink:href="#a39DLYqeUu" opacity="1" fill="#808080" fill-opacity="1"></use><g><use xlink:href="#a39DLYqeUu" opacity="1" fill-opacity="0" stroke="#000000" stroke-width="1" stroke-opacity="0"></use></g></g><g><use xlink:href="#e56258cnX" opacity="1" fill="#808080" fill-opacity="1"></use><g><use xlink:href="#e56258cnX" opacity="1" fill-opacity="0" stroke="#000000" stroke-width="1" stroke-opacity="0"></use></g></g><g><use xlink:href="#d1X5qgRdby" opacity="1" fill="#808080" fill-opacity="1"></use><g><use xlink:href="#d1X5qgRdby" opacity="1" fill-opacity="0" stroke="#000000" stroke-width="1" stroke-opacity="0"></use></g></g><g><use xlink:href="#k17pVptTxL" opacity="1" fill="#808080" fill-opacity="1"></use><g><use xlink:href="#k17pVptTxL" opacity="1" fill-opacity="0" stroke="#000000" stroke-width="1" stroke-opacity="0"></use></g></g><g><use xlink:href="#b5DjTE5R6m" opacity="1" fill="#808080" fill-opacity="1"></use><g><use xlink:href="#b5DjTE5R6m" opacity="1" fill-opacity="0" stroke="#000000" stroke-width="1" stroke-opacity="0"></use></g></g><g><use xlink:href="#c1D4RL2xL" opacity="1" fill="#808080" fill-opacity="1"></use><g><use xlink:href="#c1D4RL2xL" opacity="1" fill-opacity="0" stroke="#000000" stroke-width="1" stroke-opacity="0"></use></g></g><g><use xlink:href="#aaE0WWvRy" opacity="1" fill="#808080" fill-opacity="1"></use><g><use xlink:href="#aaE0WWvRy" opacity="1" fill-opacity="0" stroke="#000000" stroke-width="1" stroke-opacity="0"></use></g></g><g><use xlink:href="#d1cfxudheO" opacity="1" fill="#808080" fill-opacity="1"></use><g><use xlink:href="#d1cfxudheO" opacity="1" fill-opacity="0" stroke="#000000" stroke-width="1" stroke-opacity="0"></use></g></g><g><use xlink:href="#a6134V2lEm" opacity="1" fill="#808080" fill-opacity="1"></use><g><use xlink:href="#a6134V2lEm" opacity="1" fill-opacity="0" stroke="#000000" stroke-width="1" stroke-opacity="0"></use></g></g><g><use xlink:href="#dvy5Ur9WJ" opacity="1" fill="#808080" fill-opacity="1"></use><g><use xlink:href="#dvy5Ur9WJ" opacity="1" fill-opacity="0" stroke="#000000" stroke-width="1" stroke-opacity="0"></use></g></g><g><use xlink:href="#aMBxmtbtn" opacity="1" fill="#808080" fill-opacity="1"></use><g><use xlink:href="#aMBxmtbtn" opacity="1" fill-opacity="0" stroke="#000000" stroke-width="1" stroke-opacity="0"></use></g></g><g><use xlink:href="#e4jEtMQNlH" opacity="1" fill="#808080" fill-opacity="1"></use><g><use xlink:href="#e4jEtMQNlH" opacity="1" fill-opacity="0" stroke="#000000" stroke-width="1" stroke-opacity="0"></use></g></g><g><use xlink:href="#bLYUX4vl" opacity="1" fill="#808080" fill-opacity="1"></use><g><use xlink:href="#bLYUX4vl" opacity="1" fill-opacity="0" stroke="#000000" stroke-width="1" stroke-opacity="0"></use></g></g><g><use xlink:href="#a1xTnPwVCs" opacity="1" fill="#808080" fill-opacity="1"></use><g><use xlink:href="#a1xTnPwVCs" opacity="1" fill-opacity="0" stroke="#000000" stroke-width="1" stroke-opacity="0"></use></g></g><g><use xlink:href="#a87QRbunFg" opacity="1" fill="#808080" fill-opacity="1"></use><g><use xlink:href="#a87QRbunFg" opacity="1" fill-opacity="0" stroke="#000000" stroke-width="1" stroke-opacity="0"></use></g></g><g><use xlink:href="#c2CMAQCd0" opacity="1" fill="#808080" fill-opacity="1"></use><g><use xlink:href="#c2CMAQCd0" opacity="1" fill-opacity="0" stroke="#000000" stroke-width="1" stroke-opacity="0"></use></g></g><g><use xlink:href="#a20Z9AZrqW" opacity="1" fill="#808080" fill-opacity="1"></use><g><use xlink:href="#a20Z9AZrqW" opacity="1" fill-opacity="0" stroke="#000000" stroke-width="1" stroke-opacity="0"></use></g></g><g><use xlink:href="#eEcljvfJQ" opacity="1" fill="#808080" fill-opacity="1"></use><g><use xlink:href="#eEcljvfJQ" opacity="1" fill-opacity="0" stroke="#000000" stroke-width="1" stroke-opacity="0"></use></g></g><g><use xlink:href="#e36GoRM4I3" opacity="1" fill="#808080" fill-opacity="1"></use><g><use xlink:href="#e36GoRM4I3" opacity="1" fill-opacity="0" stroke="#000000" stroke-width="1" stroke-opacity="0"></use></g></g><g><use xlink:href="#d1Ma4pYZI" opacity="1" fill="#808080" fill-opacity="1"></use><g><use xlink:href="#d1Ma4pYZI" opacity="1" fill-opacity="0" stroke="#000000" stroke-width="1" stroke-opacity="0"></use></g></g><g><use xlink:href="#biK8mWxyB" opacity="1" fill="#808080" fill-opacity="1"></use><g><use xlink:href="#biK8mWxyB" opacity="1" fill-opacity="0" stroke="#000000" stroke-width="1" stroke-opacity="0"></use></g></g><g><use xlink:href="#f1IxPozJQo" opacity="1" fill="#808080" fill-opacity="1"></use><g><use xlink:href="#f1IxPozJQo" opacity="1" fill-opacity="0" stroke="#000000" stroke-width="1" stroke-opacity="0"></use></g></g><g><use xlink:href="#d4Dg35q8Ew" opacity="1" fill="#808080" fill-opacity="1"></use><g><use xlink:href="#d4Dg35q8Ew" opacity="1" fill-opacity="0" stroke="#000000" stroke-width="1" stroke-opacity="0"></use></g></g><g><use xlink:href="#a13I7DulN2" opacity="1" fill="#808080" fill-opacity="1"></use><g><use xlink:href="#a13I7DulN2" opacity="1" fill-opacity="0" stroke="#000000" stroke-width="1" stroke-opacity="0"></use></g></g><g><use xlink:href="#aEBNczpQS" opacity="1" fill="#808080" fill-opacity="1"></use><g><use xlink:href="#aEBNczpQS" opacity="1" fill-opacity="0" stroke="#000000" stroke-width="1" stroke-opacity="0"></use></g></g><g><use xlink:href="#d9biDaVgOs" opacity="1" fill="#808080" fill-opacity="1"></use><g><use xlink:href="#d9biDaVgOs" opacity="1" fill-opacity="0" stroke="#000000" stroke-width="1" stroke-opacity="0"></use></g></g><g><use xlink:href="#a13pqpuPTe" opacity="1" fill="#808080" fill-opacity="1"></use><g><use xlink:href="#a13pqpuPTe" opacity="1" fill-opacity="0" stroke="#000000" stroke-width="1" stroke-opacity="0"></use></g></g><g><use xlink:href="#g3jObxtVr0" opacity="1" fill="#808080" fill-opacity="1"></use><g><use xlink:href="#g3jObxtVr0" opacity="1" fill-opacity="0" stroke="#000000" stroke-width="1" stroke-opacity="0"></use></g></g><g><use xlink:href="#aZMaSGVM" opacity="1" fill="#808080" fill-opacity="1"></use><g><use xlink:href="#aZMaSGVM" opacity="1" fill-opacity="0" stroke="#000000" stroke-width="1" stroke-opacity="0"></use></g></g><g><use xlink:href="#jsSyxroo3" opacity="1" fill="#808080" fill-opacity="1"></use><g><use xlink:href="#jsSyxroo3" opacity="1" fill-opacity="0" stroke="#000000" stroke-width="1" stroke-opacity="0"></use></g></g><g><use xlink:href="#eCpEKFh8O" opacity="1" fill="#808080" fill-opacity="1"></use><g><use xlink:href="#eCpEKFh8O" opacity="1" fill-opacity="0" stroke="#000000" stroke-width="1" stroke-opacity="0"></use></g></g><g><g><use xlink:href="#i2qxU8Lgxi" opacity="1" fill-opacity="0" stroke="#000000" stroke-width="1" stroke-opacity="1"></use></g></g></g></g></svg>